<svg xmlns="http://www.w3.org/2000/svg" width="1042" height="1284">
 <!-- Created with Image Occlusion Enhanced -->
 <g>
  <title>Labels</title>
 </g>
 <g>
  <title>Masks</title>
  <rect id="02b885465a444a4388984f52557f18a0-ao-1" height="24.42434" width="219.81908" y="183.68085" x="170.33554" stroke="#2D2D2D" fill="#FFEBA2"/>
  <rect id="02b885465a444a4388984f52557f18a0-ao-2" height="29.60526" width="193.42106" y="176.52631" x="473.78951" stroke="#2D2D2D" fill="#FFEBA2"/>
  <rect id="02b885465a444a4388984f52557f18a0-ao-3" height="19.73684" width="90.78948" y="219.94737" x="586.28951" stroke="#2D2D2D" fill="#FFEBA2"/>
  <rect id="02b885465a444a4388984f52557f18a0-ao-4" height="21.71053" width="136.18421" y="255.47368" x="627.73688" stroke="#2D2D2D" fill="#FFEBA2"/>
  
  <rect id="02b885465a444a4388984f52557f18a0-ao-6" height="69.07895" width="339.47369" y="328.5" x="671.15793" stroke="#2D2D2D" fill="#FFEBA2"/>
  <rect id="02b885465a444a4388984f52557f18a0-ao-7" height="23.68421" width="69.07895" y="409.42105" x="667.21056" stroke="#2D2D2D" fill="#FFEBA2"/>
  <rect id="02b885465a444a4388984f52557f18a0-ao-8" height="29.60526" width="215.13158" y="442.97369" x="663.26319" stroke="#2D2D2D" fill="#FFEBA2"/>
  <rect id="02b885465a444a4388984f52557f18a0-ao-9" height="23.68421" width="118.42106" y="488.36842" x="665.23688" stroke="#2D2D2D" fill="#FFEBA2"/>
  <rect id="02b885465a444a4388984f52557f18a0-ao-10" height="31.57895" width="134.21053" y="523.89474" x="667.21056" stroke="#2D2D2D" fill="#FFEBA2"/>
  <rect id="02b885465a444a4388984f52557f18a0-ao-11" height="27.63158" width="144.07895" y="567.3158" x="673.13162" stroke="#2D2D2D" fill="#FFEBA2"/>
  <rect id="02b885465a444a4388984f52557f18a0-ao-12" height="37.5" width="151.97369" y="622.57895" x="669.18425" stroke="#2D2D2D" fill="#FFEBA2"/>
  <rect id="02b885465a444a4388984f52557f18a0-ao-13" height="29.60526" width="230.92106" y="689.68422" x="671.15793" stroke="#2D2D2D" fill="#FFEBA2"/>
  <rect id="02b885465a444a4388984f52557f18a0-ao-14" height="65.13158" width="150" y="772.57896" x="686.94741" stroke="#2D2D2D" fill="#FFEBA2"/>
  <rect id="02b885465a444a4388984f52557f18a0-ao-15" height="51.31579" width="155.92106" y="867.3158" x="714.57899" stroke="#2D2D2D" fill="#FFEBA2"/>
  <rect id="02b885465a444a4388984f52557f18a0-ao-16" height="45.39474" width="140.13158" y="1023.23686" x="736.28951" stroke="#2D2D2D" fill="#FFEBA2"/>
  <rect id="02b885465a444a4388984f52557f18a0-ao-17" height="23.68421" width="144.07895" y="956.13159" x="754.05267" stroke="#2D2D2D" fill="#FFEBA2"/>
  <rect id="02b885465a444a4388984f52557f18a0-ao-18" height="25.6579" width="226.97369" y="1159.42107" x="556.68425" stroke="#2D2D2D" fill="#FFEBA2"/>
  <rect id="02b885465a444a4388984f52557f18a0-ao-19" height="25.6579" width="90.78948" y="1100.21054" x="724.44741" stroke="#2D2D2D" fill="#FFEBA2"/>
  <rect id="02b885465a444a4388984f52557f18a0-ao-20" height="27.63158" width="226.97369" y="1224.55265" x="523.13161" stroke="#2D2D2D" fill="#FFEBA2"/>
  <rect id="02b885465a444a4388984f52557f18a0-ao-21" height="67.10526" width="130.26316" y="567.3158" x="390.89477" stroke="#2D2D2D" fill="#FFEBA2"/>
  <rect id="02b885465a444a4388984f52557f18a0-ao-22" height="23.68421" width="98.68421" y="600.86843" x="77.07897" stroke="#2D2D2D" fill="#FFEBA2"/>
  <rect id="02b885465a444a4388984f52557f18a0-ao-23" height="35.52632" width="98.68421" y="541.6579" x="73.1316" stroke="#2D2D2D" fill="#FFEBA2"/>
  <rect id="02b885465a444a4388984f52557f18a0-ao-24" height="25.6579" width="80.92105" y="502.18421" x="88.92108" stroke="#2D2D2D" fill="#FFEBA2"/>
  <rect id="02b885465a444a4388984f52557f18a0-ao-25" height="33.55263" width="116.44737" y="452.84211" x="59.31581" stroke="#2D2D2D" fill="#FFEBA2"/>
  <rect id="02b885465a444a4388984f52557f18a0-ao-26" height="27.63158" width="37.5" y="405.47369" x="144.18424" stroke="#2D2D2D" fill="#FFEBA2"/>
  <rect id="02b885465a444a4388984f52557f18a0-ao-27" height="31.57895" width="86.84211" y="358.10526" x="94.84213" stroke="#2D2D2D" fill="#FFEBA2"/>
  <rect id="02b885465a444a4388984f52557f18a0-ao-28" height="33.55263" width="118.42106" y="310.73684" x="57.34213" stroke="#2D2D2D" fill="#FFEBA2"/>
  <rect id="02b885465a444a4388984f52557f18a0-ao-29" height="29.60526" width="94.73684" y="267.31579" x="120.50003" stroke="#2D2D2D" fill="#FFEBA2"/>
  <rect id="02b885465a444a4388984f52557f18a0-ao-30" height="19.73684" width="75" y="229.81579" x="197.47371" stroke="#2D2D2D" fill="#FFEBA2"/>
 </g>
</svg>