<svg xmlns="http://www.w3.org/2000/svg" width="1070" height="349">
 <!-- Created with Image Occlusion Enhanced -->
 <g>
  <title>Labels</title>
 </g>
 <g>
  <title>Masks</title>
  <rect id="11d7417915b2407bb79391b9195be743-ao-1" height="25.92593" width="91.66667" y="10.17382" x="51.56367" stroke="#2D2D2D" fill="#FFEBA2"/>
  <rect id="11d7417915b2407bb79391b9195be743-ao-2" height="25" width="83.33334" y="14.80345" x="289.52664" stroke="#2D2D2D" fill="#FFEBA2"/>
  <rect id="11d7417915b2407bb79391b9195be743-ao-3" height="30.55556" width="68.51852" y="112.9516" x="232.11923" stroke="#2D2D2D" fill="#FFEBA2"/>
  <rect id="11d7417915b2407bb79391b9195be743-ao-4" height="19.44444" width="62.96296" y="59.24789" x="7.11923" stroke="#2D2D2D" fill="#FFEBA2"/>
  <rect id="11d7417915b2407bb79391b9195be743-ao-5" height="25" width="56.48148" y="164.80345" x="5.26737" stroke="#2D2D2D" fill="#FFEBA2"/>
  <rect id="11d7417915b2407bb79391b9195be743-ao-6" height="27.77778" width="50" y="300.91457" x="11.74886" stroke="#2D2D2D" fill="#FFEBA2"/>
  <rect id="11d7417915b2407bb79391b9195be743-ao-7" height="15.74074" width="75.92593" y="319.43309" x="74.71182" stroke="#2D2D2D" fill="#FFEBA2"/>
  <rect id="11d7417915b2407bb79391b9195be743-ao-8" height="22.22222" width="61.11111" y="319.43309" x="285.82294" stroke="#2D2D2D" fill="#FFEBA2"/>
  <rect id="11d7417915b2407bb79391b9195be743-ao-9" height="16.66667" width="111.11111" y="198.13679" x="360.82294" stroke="#2D2D2D" fill="#FFEBA2"/>
  <rect id="11d7417915b2407bb79391b9195be743-ao-10" height="23.14815" width="104.62963" y="100.91456" x="386.74886" stroke="#2D2D2D" fill="#FFEBA2"/>
  <rect id="11d7417915b2407bb79391b9195be743-ao-11" height="29.62963" width="114.81482" y="309.2479" x="400.63775" stroke="#2D2D2D" fill="#FFEBA2"/>
  
  <rect id="11d7417915b2407bb79391b9195be743-ao-13" height="18.51852" width="139.81482" y="45.35901" x="408.97109" stroke="#2D2D2D" fill="#FFEBA2"/>
  <rect id="11d7417915b2407bb79391b9195be743-ao-14" height="25" width="81.48148" y="9.2479" x="561.74887" stroke="#2D2D2D" fill="#FFEBA2"/>
  <rect id="11d7417915b2407bb79391b9195be743-ao-15" height="22.22222" width="98.14815" y="312.02568" x="692.30443" stroke="#2D2D2D" fill="#FFEBA2"/>
  <rect id="11d7417915b2407bb79391b9195be743-ao-16" height="21.2963" width="64.81482" y="175.91457" x="832.11924" stroke="#2D2D2D" fill="#FFEBA2"/>
 </g>
</svg>