<svg xmlns="http://www.w3.org/2000/svg" width="2560" height="1278">
 <!-- Created with Image Occlusion Enhanced -->
 <g>
  <title>Labels</title>
 </g>
 <g>
  <title>Masks</title>
  <rect id="252a3e8f7c8c4be4a77a6cbf269aa8b7-ao-1" height="24.60938" width="132.71485" y="1197.9654" x="1502.13998" stroke="#2D2D2D" fill="#FFEBA2"/>
  <rect id="252a3e8f7c8c4be4a77a6cbf269aa8b7-ao-2" height="21.97266" width="136.23047" y="1160.17243" x="1575.0892" stroke="#2D2D2D" fill="#FF7E7E" class="qshape"/>
  <rect id="252a3e8f7c8c4be4a77a6cbf269aa8b7-ao-3" height="24.60938" width="74.70703" y="1063.49274" x="1947.74547" stroke="#2D2D2D" fill="#FFEBA2"/>
  <rect id="252a3e8f7c8c4be4a77a6cbf269aa8b7-ao-4" height="28.125" width="117.1875" y="1227.13872" x="1279.21605" stroke="#2D2D2D" fill="#FFEBA2"/>
  <rect id="252a3e8f7c8c4be4a77a6cbf269aa8b7-ao-5" height="31.25" width="156.25" y="1249.01372" x="996.40355" stroke="#2D2D2D" fill="#FFEBA2"/>
  <rect id="252a3e8f7c8c4be4a77a6cbf269aa8b7-ao-6" height="29.6875" width="128.125" y="1192.76372" x="896.40354" stroke="#2D2D2D" fill="#FFEBA2"/>
  <rect id="252a3e8f7c8c4be4a77a6cbf269aa8b7-ao-7" height="29.6875" width="73.4375" y="1138.07622" x="882.34104" stroke="#2D2D2D" fill="#FFEBA2"/>
  <rect id="252a3e8f7c8c4be4a77a6cbf269aa8b7-ao-8" height="24.60938" width="79.10156" y="743.7801" x="6.57625" stroke="#2D2D2D" fill="#FFEBA2"/>
  <rect id="252a3e8f7c8c4be4a77a6cbf269aa8b7-ao-9" height="14.0625" width="72.94922" y="484.50275" x="4.81843" stroke="#2D2D2D" fill="#FFEBA2"/>
  <rect id="252a3e8f7c8c4be4a77a6cbf269aa8b7-ao-10" height="24.60938" width="136.23047" y="362.33477" x="7.45515" stroke="#2D2D2D" fill="#FFEBA2"/>
  <rect id="252a3e8f7c8c4be4a77a6cbf269aa8b7-ao-11" height="21.97266" width="152.05079" y="317.51055" x="5.69734" stroke="#2D2D2D" fill="#FFEBA2"/>
  <rect id="252a3e8f7c8c4be4a77a6cbf269aa8b7-ao-12" height="19.33594" width="95.80078" y="133.81913" x="256.18563" stroke="#2D2D2D" fill="#FFEBA2"/>
  <rect id="252a3e8f7c8c4be4a77a6cbf269aa8b7-ao-13" height="23.73047" width="143.26172" y="31.86599" x="-1.83613" stroke="#2D2D2D" fill="#FFEBA2"/>
  <rect id="252a3e8f7c8c4be4a77a6cbf269aa8b7-ao-14" height="21.97266" width="113.37891" y="13.40896" x="493.86701" stroke="#2D2D2D" fill="#FFEBA2"/>
  <rect id="252a3e8f7c8c4be4a77a6cbf269aa8b7-ao-15" height="28.125" width="99.31641" y="55.59646" x="961.86369" stroke="#2D2D2D" fill="#FFEBA2"/>
  <rect id="252a3e8f7c8c4be4a77a6cbf269aa8b7-ao-16" height="35.9375" width="106.25" y="667.91249" x="915.67436" stroke="#2D2D2D" fill="#FFEBA2"/>
  <rect id="252a3e8f7c8c4be4a77a6cbf269aa8b7-ao-17" height="31.25" width="101.5625" y="1175.72502" x="393.79935" stroke="#2D2D2D" fill="#FFEBA2"/>
  <rect id="252a3e8f7c8c4be4a77a6cbf269aa8b7-ao-18" height="25" width="96.875" y="821.03752" x="1010.54043" stroke="#2D2D2D" fill="#FFEBA2"/>
  <rect id="252a3e8f7c8c4be4a77a6cbf269aa8b7-ao-19" height="29.6875" width="85.9375" y="775.72501" x="1029.29044" stroke="#2D2D2D" fill="#FFEBA2"/>
  <rect id="252a3e8f7c8c4be4a77a6cbf269aa8b7-ao-20" height="28.125" width="131.25" y="860.10002" x="1568.35295" stroke="#2D2D2D" fill="#FFEBA2"/>
  <rect id="252a3e8f7c8c4be4a77a6cbf269aa8b7-ao-21" height="32.8125" width="89.0625" y="811.66252" x="1577.72795" stroke="#2D2D2D" fill="#FFEBA2"/>
  <rect id="252a3e8f7c8c4be4a77a6cbf269aa8b7-ao-22" height="25" width="109.375" y="772.60001" x="1573.04045" stroke="#2D2D2D" fill="#FFEBA2"/>
  <rect id="252a3e8f7c8c4be4a77a6cbf269aa8b7-ao-23" height="26.5625" width="79.6875" y="767.91251" x="1691.79045" stroke="#2D2D2D" fill="#FFEBA2"/>
  <rect id="252a3e8f7c8c4be4a77a6cbf269aa8b7-ao-24" height="26.5625" width="62.5" y="710.10001" x="1724.60295" stroke="#2D2D2D" fill="#FFEBA2"/>
  <rect id="252a3e8f7c8c4be4a77a6cbf269aa8b7-ao-25" height="28.125" width="100" y="875.72502" x="1926.16545" stroke="#2D2D2D" fill="#FFEBA2"/>
  <rect id="252a3e8f7c8c4be4a77a6cbf269aa8b7-ao-26" height="25" width="79.6875" y="797.60001" x="1915.22795" stroke="#2D2D2D" fill="#FFEBA2"/>
  <rect id="252a3e8f7c8c4be4a77a6cbf269aa8b7-ao-27" height="29.6875" width="87.5" y="752.28751" x="1913.66545" stroke="#2D2D2D" fill="#FFEBA2"/>
  <rect id="252a3e8f7c8c4be4a77a6cbf269aa8b7-ao-28" height="36.32812" width="91.40625" y="561.17757" x="1791.62173" stroke="#2D2D2D" fill="#FFEBA2"/>
  <rect id="252a3e8f7c8c4be4a77a6cbf269aa8b7-ao-29" height="37.5" width="63.28125" y="570.55257" x="1727.16861" stroke="#2D2D2D" fill="#FFEBA2"/>
  <rect id="252a3e8f7c8c4be4a77a6cbf269aa8b7-ao-30" height="26.95312" width="69.14062" y="517.81819" x="1390.8405" stroke="#2D2D2D" fill="#FFEBA2"/>
  <rect id="252a3e8f7c8c4be4a77a6cbf269aa8b7-ao-31" height="29.29687" width="57.42187" y="623.28693" x="1085.03694" stroke="#2D2D2D" fill="#FFEBA2"/>
  <rect id="252a3e8f7c8c4be4a77a6cbf269aa8b7-ao-32" height="35.15625" width="108.98437" y="291.64632" x="1311.2088" stroke="#2D2D2D" fill="#FFEBA2"/>
  <rect id="252a3e8f7c8c4be4a77a6cbf269aa8b7-ao-33" height="25.78125" width="139.45312" y="308.05257" x="1720.19315" stroke="#2D2D2D" fill="#FFEBA2"/>
  <rect id="252a3e8f7c8c4be4a77a6cbf269aa8b7-ao-34" height="22.26562" width="162.89062" y="140.47445" x="1701.44316" stroke="#2D2D2D" fill="#FFEBA2"/>
  <rect id="252a3e8f7c8c4be4a77a6cbf269aa8b7-ao-35" height="23.4375" width="56.25" y="516.64631" x="2238.32931" stroke="#2D2D2D" fill="#FFEBA2"/>
  <rect id="252a3e8f7c8c4be4a77a6cbf269aa8b7-ao-36" height="26.95312" width="84.375" y="182.66195" x="2288.71994" stroke="#2D2D2D" fill="#FFEBA2"/>
 </g>
</svg>