<svg xmlns="http://www.w3.org/2000/svg" width="2560" height="1706">
 <!-- Created with Image Occlusion Enhanced -->
 <g>
  <title>Labels</title>
 </g>
 <g>
  <title>Masks</title>
  <rect id="339995ef947d4b5dbcedd17f96f87cf6-ao-1" height="35.41667" width="75" y="195.59356" x="1298.83553" stroke="#2D2D2D" fill="#FFEBA2"/>
  <rect id="339995ef947d4b5dbcedd17f96f87cf6-ao-2" height="35.41667" width="185.41667" y="349.76023" x="1121.7522" stroke="#2D2D2D" fill="#FFEBA2"/>
  <rect id="339995ef947d4b5dbcedd17f96f87cf6-ao-3" height="31.25" width="112.5" y="416.42689" x="1280.08553" stroke="#2D2D2D" fill="#FFEBA2"/>
  <rect id="339995ef947d4b5dbcedd17f96f87cf6-ao-4" height="25" width="125" y="474.76023" x="1217.58553" stroke="#2D2D2D" fill="#FFEBA2"/>
  <rect id="339995ef947d4b5dbcedd17f96f87cf6-ao-5" height="37.5" width="122.91667" y="551.84356" x="1221.75219" stroke="#2D2D2D" fill="#FFEBA2"/>
  <rect id="339995ef947d4b5dbcedd17f96f87cf6-ao-6" height="33.33333" width="129.16667" y="603.92689" x="1180.08553" stroke="#2D2D2D" fill="#FFEBA2"/>
  
  <rect id="339995ef947d4b5dbcedd17f96f87cf6-ao-8" height="27.08333" width="125" y="722.67689" x="1388.41886" stroke="#2D2D2D" fill="#FFEBA2"/>
  <rect id="339995ef947d4b5dbcedd17f96f87cf6-ao-9" height="22.91667" width="110.41667" y="745.59356" x="1517.58553" stroke="#2D2D2D" fill="#FFEBA2"/>
  <rect id="339995ef947d4b5dbcedd17f96f87cf6-ao-10" height="31.25" width="72.91667" y="708.09356" x="1917.58552" stroke="#2D2D2D" fill="#FFEBA2"/>
  <rect id="339995ef947d4b5dbcedd17f96f87cf6-ao-11" height="35.41667" width="93.75" y="603.92689" x="1832.16886" stroke="#2D2D2D" fill="#FFEBA2"/>
  <rect id="339995ef947d4b5dbcedd17f96f87cf6-ao-12" height="29.16667" width="145.83333" y="803.9269" x="1973.83552" stroke="#2D2D2D" fill="#FFEBA2"/>
  <rect id="339995ef947d4b5dbcedd17f96f87cf6-ao-13" height="31.25" width="62.5" y="860.1769" x="1969.66886" stroke="#2D2D2D" fill="#FFEBA2"/>
  <rect id="339995ef947d4b5dbcedd17f96f87cf6-ao-14" height="33.33333" width="106.25" y="699.76024" x="484.2522" stroke="#2D2D2D" fill="#FFEBA2"/>
  <rect id="339995ef947d4b5dbcedd17f96f87cf6-ao-15" height="45.83333" width="225" y="970.59358" x="334.2522" stroke="#2D2D2D" fill="#FFEBA2"/>
  <rect id="339995ef947d4b5dbcedd17f96f87cf6-ao-16" height="35.41667" width="139.58333" y="843.51024" x="1171.7522" stroke="#2D2D2D" fill="#FFEBA2"/>
  <rect id="339995ef947d4b5dbcedd17f96f87cf6-ao-17" height="39.58333" width="114.58333" y="1010.17691" x="1259.25219" stroke="#2D2D2D" fill="#FFEBA2"/>
  <rect id="339995ef947d4b5dbcedd17f96f87cf6-ao-18" height="33.33333" width="120.83333" y="1060.17691" x="1238.41886" stroke="#2D2D2D" fill="#FFEBA2"/>
  <rect id="339995ef947d4b5dbcedd17f96f87cf6-ao-19" height="33.33333" width="110.41667" y="1103.92691" x="1286.33553" stroke="#2D2D2D" fill="#FFEBA2"/>
  <rect id="339995ef947d4b5dbcedd17f96f87cf6-ao-20" height="35.41667" width="220.83333" y="1183.09358" x="1023.83553" stroke="#2D2D2D" fill="#FFEBA2"/>
  <rect id="339995ef947d4b5dbcedd17f96f87cf6-ao-21" height="27.08333" width="164.58333" y="1185.17691" x="1278.00219" stroke="#2D2D2D" fill="#FFEBA2"/>
  <rect id="339995ef947d4b5dbcedd17f96f87cf6-ao-22" height="37.5" width="66.66667" y="1160.17691" x="1505.08553" stroke="#2D2D2D" fill="#FFEBA2"/>
  <rect id="339995ef947d4b5dbcedd17f96f87cf6-ao-23" height="27.08333" width="187.5" y="1037.26025" x="1903.00219" stroke="#2D2D2D" fill="#FFEBA2"/>
  <rect id="339995ef947d4b5dbcedd17f96f87cf6-ao-24" height="25" width="112.5" y="1074.76025" x="1915.50219" stroke="#2D2D2D" fill="#FFEBA2"/>
  <rect id="339995ef947d4b5dbcedd17f96f87cf6-ao-25" height="25" width="93.75" y="1116.42691" x="1905.08552" stroke="#2D2D2D" fill="#FFEBA2"/>
  <rect id="339995ef947d4b5dbcedd17f96f87cf6-ao-26" height="35.41667" width="235.41667" y="1199.76025" x="1907.16886" stroke="#2D2D2D" fill="#FFEBA2"/>
  <rect id="339995ef947d4b5dbcedd17f96f87cf6-ao-27" height="33.33333" width="127.08333" y="1270.59358" x="1903.00219" stroke="#2D2D2D" fill="#FFEBA2"/>
  <rect id="339995ef947d4b5dbcedd17f96f87cf6-ao-28" height="18.75" width="150" y="1322.67691" x="1915.50219" stroke="#2D2D2D" fill="#FFEBA2"/>
  <rect id="339995ef947d4b5dbcedd17f96f87cf6-ao-29" height="33.33333" width="85.41667" y="1478.92693" x="1919.66886" stroke="#2D2D2D" fill="#FFEBA2"/>
  <rect id="339995ef947d4b5dbcedd17f96f87cf6-ao-30" height="62.5" width="202.08333" y="1616.42693" x="1348.83553" stroke="#2D2D2D" fill="#FFEBA2"/>
 </g>
</svg>