<svg xmlns="http://www.w3.org/2000/svg" width="1920.0000000000002" height="2560">
 <!-- Created with Image Occlusion Enhanced -->
 <g>
  <title>Labels</title>
 </g>
 <g>
  <title>Masks</title>
  <rect id="39ef072fdee34fe6a8817b38867dab64-ao-1" height="49.21875" width="159.375" y="42.79707" x="1032.01594" stroke="#2D2D2D" fill="#FFEBA2"/>
  <rect id="39ef072fdee34fe6a8817b38867dab64-ao-2" height="65.625" width="142.96875" y="122.48457" x="1060.14094" stroke="#2D2D2D" fill="#FFEBA2"/>
  <rect id="39ef072fdee34fe6a8817b38867dab64-ao-3" height="63.28125" width="171.09375" y="314.67207" x="1043.73469" stroke="#2D2D2D" fill="#FFEBA2"/>
  <rect id="39ef072fdee34fe6a8817b38867dab64-ao-4" height="67.96875" width="208.59375" y="450.60957" x="996.85969" stroke="#2D2D2D" fill="#FFEBA2"/>
  <rect id="39ef072fdee34fe6a8817b38867dab64-ao-5" height="58.59375" width="213.28125" y="399.04707" x="1294.51593" stroke="#2D2D2D" fill="#FFEBA2"/>
  <rect id="39ef072fdee34fe6a8817b38867dab64-ao-6" height="46.875" width="351.56249" y="485.76582" x="1479.67218" stroke="#2D2D2D" fill="#FFEBA2"/>
  <rect id="39ef072fdee34fe6a8817b38867dab64-ao-7" height="56.25" width="201.5625" y="638.10958" x="1453.89093" stroke="#2D2D2D" fill="#FFEBA2"/>
  <rect id="39ef072fdee34fe6a8817b38867dab64-ao-8" height="60.9375" width="250.78125" y="750.60958" x="1540.60968" stroke="#2D2D2D" fill="#FFEBA2"/>
  <rect id="39ef072fdee34fe6a8817b38867dab64-ao-9" height="63.28125" width="241.40625" y="865.45333" x="1580.45343" stroke="#2D2D2D" fill="#FFEBA2"/>
  <rect id="39ef072fdee34fe6a8817b38867dab64-ao-10" height="72.65625" width="196.875" y="706.07833" x="483.57844" stroke="#2D2D2D" fill="#FFEBA2"/>
  <rect id="39ef072fdee34fe6a8817b38867dab64-ao-11" height="60.9375" width="185.15625" y="677.95333" x="160.14095" stroke="#2D2D2D" fill="#FFEBA2"/>
  <rect id="39ef072fdee34fe6a8817b38867dab64-ao-12" height="96.09375" width="290.625" y="767.01583" x="28.89095" stroke="#2D2D2D" fill="#FFEBA2"/>
  <rect id="39ef072fdee34fe6a8817b38867dab64-ao-13" height="93.75" width="180.46875" y="893.57833" x="94.51595" stroke="#2D2D2D" fill="#FFEBA2"/>
  <rect id="39ef072fdee34fe6a8817b38867dab64-ao-14" height="119.53125" width="276.5625" y="1563.89086" x="14.82845" stroke="#2D2D2D" fill="#FFEBA2"/>
  <rect id="39ef072fdee34fe6a8817b38867dab64-ao-15" height="82.03125" width="276.5625" y="1732.64086" x="10.14095" stroke="#2D2D2D" fill="#FFEBA2"/>
  <rect id="39ef072fdee34fe6a8817b38867dab64-ao-16" height="79.6875" width="360.93749" y="1884.9846" x="17.1722" stroke="#2D2D2D" fill="#FFEBA2"/>
  <rect id="39ef072fdee34fe6a8817b38867dab64-ao-17" height="65.625" width="164.0625" y="1967.01585" x="1552.32843" stroke="#2D2D2D" fill="#FFEBA2"/>
  <rect id="39ef072fdee34fe6a8817b38867dab64-ao-18" height="67.96875" width="285.9375" y="1831.07835" x="1571.07843" stroke="#2D2D2D" fill="#FFEBA2"/>
  <rect id="39ef072fdee34fe6a8817b38867dab64-ao-19" height="110.15625" width="161.71875" y="1228.73461" x="1493.73468" stroke="#2D2D2D" fill="#FFEBA2"/>
  <rect id="39ef072fdee34fe6a8817b38867dab64-ao-20" height="58.59375" width="356.24999" y="947.4846" x="1517.17218" stroke="#2D2D2D" fill="#FFEBA2"/>
  <rect id="39ef072fdee34fe6a8817b38867dab64-ao-21" height="60.9375" width="389.06249" y="1013.1096" x="1498.42218" stroke="#2D2D2D" fill="#FF7E7E" class="qshape"/>
  <rect id="39ef072fdee34fe6a8817b38867dab64-ao-22" height="70.3125" width="370.31249" y="1078.7346" x="1521.85968" stroke="#2D2D2D" fill="#FFEBA2"/>
  <rect id="39ef072fdee34fe6a8817b38867dab64-ao-23" height="65.625" width="285.9375" y="2154.29267" x="1497.97575" stroke="#2D2D2D" fill="#FFEBA2"/>
  <rect id="39ef072fdee34fe6a8817b38867dab64-ao-24" height="75" width="241.40625" y="2381.63642" x="1530.78825" stroke="#2D2D2D" fill="#FFEBA2"/>
  <rect id="39ef072fdee34fe6a8817b38867dab64-ao-25" height="58.59375" width="351.56249" y="2262.10517" x="16.72577" stroke="#2D2D2D" fill="#FFEBA2"/>
  <rect id="39ef072fdee34fe6a8817b38867dab64-ao-26" height="39.84375" width="358.59374" y="2458.98017" x="56.56952" stroke="#2D2D2D" fill="#FFEBA2"/>
 </g>
</svg>