<svg xmlns="http://www.w3.org/2000/svg" width="2560" height="1708">
 <!-- Created with Image Occlusion Enhanced -->
 <g>
  <title>Labels</title>
 </g>
 <g>
  <title>Masks</title>
  <rect id="487234e4859549eba1487f19c5c3041a-ao-1" height="41.66667" width="191.66666" y="902.42289" x="8.75617" stroke="#2D2D2D" fill="#FFEBA2"/>
  <rect id="487234e4859549eba1487f19c5c3041a-ao-2" height="41.66667" width="102.08333" y="1033.67288" x="708.75615" stroke="#2D2D2D" fill="#FFEBA2"/>
  <rect id="487234e4859549eba1487f19c5c3041a-ao-3" height="33.33333" width="170.83333" y="1114.92288" x="685.83949" stroke="#2D2D2D" fill="#FFEBA2"/>
  <rect id="487234e4859549eba1487f19c5c3041a-ao-4" height="25" width="129.16666" y="1227.42288" x="687.92282" stroke="#2D2D2D" fill="#FFEBA2"/>
  <rect id="487234e4859549eba1487f19c5c3041a-ao-5" height="41.66667" width="147.91666" y="785.75621" x="831.67281" stroke="#2D2D2D" fill="#FFEBA2"/>
  <rect id="487234e4859549eba1487f19c5c3041a-ao-6" height="33.33333" width="181.24999" y="708.67288" x="829.58948" stroke="#2D2D2D" fill="#FFEBA2"/>
  <rect id="487234e4859549eba1487f19c5c3041a-ao-7" height="37.5" width="125" y="644.08955" x="865.00615" stroke="#2D2D2D" fill="#FFEBA2"/>
  <rect id="487234e4859549eba1487f19c5c3041a-ao-8" height="35.41667" width="170.83333" y="744.08955" x="2286.33556" stroke="#2D2D2D" fill="#FFEBA2"/>
  <rect id="487234e4859549eba1487f19c5c3041a-ao-9" height="52.08333" width="193.74999" y="954.50621" x="1707.16891" stroke="#2D2D2D" fill="#FFEBA2"/>
  <rect id="487234e4859549eba1487f19c5c3041a-ao-10" height="50" width="193.74999" y="1029.50621" x="1678.00224" stroke="#2D2D2D" fill="#FFEBA2"/>
  
  <rect id="487234e4859549eba1487f19c5c3041a-ao-12" height="47.91667" width="202.08333" y="1200.33953" x="1663.41891" stroke="#2D2D2D" fill="#FFEBA2"/>
  <rect id="487234e4859549eba1487f19c5c3041a-ao-13" height="35.41667" width="187.49999" y="1267.0062" x="1700.91891" stroke="#2D2D2D" fill="#FFEBA2"/>
  <rect id="487234e4859549eba1487f19c5c3041a-ao-14" height="35.41667" width="206.24999" y="1369.08954" x="1980.08557" stroke="#2D2D2D" fill="#FFEBA2"/>
  <rect id="487234e4859549eba1487f19c5c3041a-ao-15" height="41.66667" width="168.74999" y="1396.17288" x="2244.66889" stroke="#2D2D2D" fill="#FFEBA2"/>
  <rect id="487234e4859549eba1487f19c5c3041a-ao-16" height="45.83333" width="79.16666" y="1633.67287" x="2428.00222" stroke="#2D2D2D" fill="#FFEBA2"/>
  <rect id="487234e4859549eba1487f19c5c3041a-ao-17" height="35.41667" width="154.16666" y="1673.2562" x="2078.00223" stroke="#2D2D2D" fill="#FFEBA2"/>
  <rect id="487234e4859549eba1487f19c5c3041a-ao-18" height="54.16666" width="147.91666" y="1587.83954" x="1913.4189" stroke="#2D2D2D" fill="#FFEBA2"/>
 </g>
</svg>