<svg xmlns="http://www.w3.org/2000/svg" width="2560" height="1344">
 <!-- Created with Image Occlusion Enhanced -->
 <g>
  <title>Labels</title>
 </g>
 <g>
  <title>Masks</title>
  <rect id="611a136c52df4b09aeb80b0c91d7c205-ao-1" height="27.9182" width="186.12133" y="5.51538" x="802.10738" stroke="#2D2D2D" fill="#FFEBA2"/>
  <rect id="611a136c52df4b09aeb80b0c91d7c205-ao-2" height="31.64063" width="190.77436" y="58.55996" x="762.0913" stroke="#2D2D2D" fill="#FFEBA2"/>
  <rect id="611a136c52df4b09aeb80b0c91d7c205-ao-3" height="31.64063" width="196.358" y="97.64544" x="756.50766" stroke="#2D2D2D" fill="#FFEBA2"/>
  <rect id="611a136c52df4b09aeb80b0c91d7c205-ao-4" height="34.43245" width="129.35432" y="7.3766" x="1247.86796" stroke="#2D2D2D" fill="#FFEBA2"/>
  <rect id="611a136c52df4b09aeb80b0c91d7c205-ao-5" height="35.36305" width="98.6443" y="1.79296" x="1468.15589" stroke="#2D2D2D" fill="#FFEBA2"/>
  <rect id="611a136c52df4b09aeb80b0c91d7c205-ao-6" height="28.84881" width="153.55009" y="46.46208" x="1320.27803" stroke="#2D2D2D" fill="#FFEBA2"/>
  <rect id="611a136c52df4b09aeb80b0c91d7c205-ao-7" height="28.84881" width="115.39522" y="7.3766" x="2105.39987" stroke="#2D2D2D" fill="#FFEBA2"/>
  <rect id="611a136c52df4b09aeb80b0c91d7c205-ao-8" height="29.77941" width="200.18382" y="353.27385" x="1793.94409" stroke="#2D2D2D" fill="#FFEBA2"/>
  <rect id="611a136c52df4b09aeb80b0c91d7c205-ao-9" height="31.43382" width="119.11764" y="560.07532" x="1934.56909" stroke="#2D2D2D" fill="#FFEBA2"/>
  <rect id="611a136c52df4b09aeb80b0c91d7c205-ao-10" height="39.70588" width="124.08088" y="776.80326" x="2032.17938" stroke="#2D2D2D" fill="#FFEBA2"/>
  <rect id="611a136c52df4b09aeb80b0c91d7c205-ao-11" height="28.125" width="145.58823" y="773.49443" x="2281.99555" stroke="#2D2D2D" fill="#FFEBA2"/>
  <rect id="611a136c52df4b09aeb80b0c91d7c205-ao-12" height="23.16176" width="158.82353" y="814.85473" x="2267.10584" stroke="#2D2D2D" fill="#FFEBA2"/>
  <rect id="611a136c52df4b09aeb80b0c91d7c205-ao-13" height="41.36029" width="92.64706" y="1072.94297" x="2104.97349" stroke="#2D2D2D" fill="#FFEBA2"/>
  <rect id="611a136c52df4b09aeb80b0c91d7c205-ao-14" height="36.39706" width="87.68382" y="1072.94297" x="1966.00291" stroke="#2D2D2D" fill="#FFEBA2"/>
  <rect id="611a136c52df4b09aeb80b0c91d7c205-ao-15" height="39.70588" width="148.89706" y="813.20033" x="1562.32645" stroke="#2D2D2D" fill="#FFEBA2"/>
  <rect id="611a136c52df4b09aeb80b0c91d7c205-ao-16" height="23.16176" width="72.79412" y="1289.67092" x="1069.23295" stroke="#2D2D2D" fill="#FFEBA2"/>
  <rect id="611a136c52df4b09aeb80b0c91d7c205-ao-17" height="31.43382" width="132.35294" y="1297.94297" x="863.29804" stroke="#2D2D2D" fill="#FFEBA2"/>
  <rect id="611a136c52df4b09aeb80b0c91d7c205-ao-18" height="38.05147" width="153.86029" y="1306.21503" x="515.87158" stroke="#2D2D2D" fill="#FFEBA2"/>
  <rect id="611a136c52df4b09aeb80b0c91d7c205-ao-19" height="44.66912" width="115.80882" y="1005.1121" x="889.76863" stroke="#2D2D2D" fill="#FFEBA2"/>
  <rect id="611a136c52df4b09aeb80b0c91d7c205-ao-20" height="36.39706" width="132.35294" y="965.40622" x="859.98922" stroke="#2D2D2D" fill="#FFEBA2"/>
  <rect id="611a136c52df4b09aeb80b0c91d7c205-ao-21" height="43.01471" width="185.29411" y="555.1121" x="782.23187" stroke="#2D2D2D" fill="#FFEBA2"/>
  <rect id="611a136c52df4b09aeb80b0c91d7c205-ao-22" height="31.43382" width="137.31617" y="540.22238" x="264.40099" stroke="#2D2D2D" fill="#FFEBA2"/>
  
  <rect id="611a136c52df4b09aeb80b0c91d7c205-ao-24" height="29.77941" width="120.77206" y="631.21503" x="236.276" stroke="#2D2D2D" fill="#FFEBA2"/>
  <rect id="611a136c52df4b09aeb80b0c91d7c205-ao-25" height="34.74265" width="84.375" y="938.93563" x="16.63309" stroke="#2D2D2D" fill="#FFEBA2"/>
  <rect id="611a136c52df4b09aeb80b0c91d7c205-ao-26" height="31.43382" width="69.48529" y="993.53122" x="31.52279" stroke="#2D2D2D" fill="#FFEBA2"/>
  <rect id="611a136c52df4b09aeb80b0c91d7c205-ao-27" height="46.32353" width="120.77206" y="293.71503" x="104.31691" stroke="#2D2D2D" fill="#FFEBA2"/>
  <rect id="611a136c52df4b09aeb80b0c91d7c205-ao-28" height="23.16176" width="143.93382" y="262.28121" x="41.44926" stroke="#2D2D2D" fill="#FFEBA2"/>
  <rect id="611a136c52df4b09aeb80b0c91d7c205-ao-29" height="33.08823" width="178.67647" y="219.26651" x="-6.52868" stroke="#2D2D2D" fill="#FFEBA2"/>
 </g>
</svg>