<svg xmlns="http://www.w3.org/2000/svg" width="1919.9999999999998" height="2560">
 <!-- Created with Image Occlusion Enhanced -->
 <g>
  <title>Labels</title>
 </g>
 <g>
  <title>Masks</title>
  <rect id="77756dfd843d483da7ca12459df7709b-ao-1" height="87.5" width="259.375" y="1812.62844" x="241.31877" stroke="#2D2D2D" fill="#FFEBA2"/>
  <rect id="77756dfd843d483da7ca12459df7709b-ao-2" height="112.5" width="281.25" y="1225.12844" x="1488.19375" stroke="#2D2D2D" fill="#FFEBA2"/>
  <rect id="77756dfd843d483da7ca12459df7709b-ao-3" height="81.25" width="259.375" y="1022.00344" x="1506.94375" stroke="#2D2D2D" fill="#FFEBA2"/>
  <rect id="77756dfd843d483da7ca12459df7709b-ao-4" height="68.75" width="246.875" y="887.62844" x="719.44376" stroke="#2D2D2D" fill="#FFEBA2"/>
  <rect id="77756dfd843d483da7ca12459df7709b-ao-5" height="53.125" width="465.62499" y="1012.62844" x="641.31876" stroke="#2D2D2D" fill="#FFEBA2"/>
  <rect id="77756dfd843d483da7ca12459df7709b-ao-6" height="65.625" width="181.25" y="1159.50344" x="725.69376" stroke="#2D2D2D" fill="#FFEBA2"/>
  <rect id="77756dfd843d483da7ca12459df7709b-ao-7" height="81.25" width="181.25" y="1522.00343" x="741.31876" stroke="#2D2D2D" fill="#FFEBA2"/>
  <rect id="77756dfd843d483da7ca12459df7709b-ao-8" height="68.75" width="246.875" y="1578.25343" x="81.94377" stroke="#2D2D2D" fill="#FFEBA2"/>
  <rect id="77756dfd843d483da7ca12459df7709b-ao-9" height="71.875" width="243.75" y="1684.50343" x="144.44377" stroke="#2D2D2D" fill="#FFEBA2"/>
  <rect id="77756dfd843d483da7ca12459df7709b-ao-10" height="96.875" width="243.75" y="600.12843" x="53.81877" stroke="#2D2D2D" fill="#FFEBA2"/>
  <rect id="77756dfd843d483da7ca12459df7709b-ao-11" height="125" width="209.375" y="737.62843" x="719.44376" stroke="#2D2D2D" fill="#FFEBA2"/>
  <rect id="77756dfd843d483da7ca12459df7709b-ao-12" height="115.625" width="200" y="750.12843" x="947.56876" stroke="#2D2D2D" fill="#FFEBA2"/>
  <rect id="77756dfd843d483da7ca12459df7709b-ao-13" height="118.75" width="234.375" y="462.62842" x="1388.19375" stroke="#2D2D2D" fill="#FFEBA2"/>
  <rect id="77756dfd843d483da7ca12459df7709b-ao-14" height="81.25" width="178.125" y="28.25339" x="331.94377" stroke="#2D2D2D" fill="#FFEBA2"/>
  <rect id="77756dfd843d483da7ca12459df7709b-ao-15" height="103.125" width="268.75" y="1175.12844" x="116.31877" stroke="#2D2D2D" fill="#FF7E7E" class="qshape"/>
 </g>
</svg>