<svg xmlns="http://www.w3.org/2000/svg" width="961" height="1280">
 <!-- Created with Image Occlusion Enhanced -->
 <g>
  <title>Labels</title>
 </g>
 <g>
  <title>Masks</title>
  <rect id="793a0f6b09514ae1989126382c7f8565-ao-1" height="43.06641" width="137.98828" y="190.28721" x="779.82301" stroke="#2D2D2D" fill="#FFEBA2"/>
  <rect id="793a0f6b09514ae1989126382c7f8565-ao-2" height="29.88281" width="126.5625" y="272.0255" x="730.60426" stroke="#2D2D2D" fill="#FFEBA2"/>
  <rect id="793a0f6b09514ae1989126382c7f8565-ao-3" height="25.48828" width="114.25782" y="339.70128" x="181.28784" stroke="#2D2D2D" fill="#FFEBA2"/>
  <rect id="793a0f6b09514ae1989126382c7f8565-ao-4" height="26.36719" width="137.98828" y="429.34972" x="668.20192" stroke="#2D2D2D" fill="#FFEBA2"/>
  <rect id="793a0f6b09514ae1989126382c7f8565-ao-5" height="23.73047" width="109.86328" y="505.81457" x="637.4402" stroke="#2D2D2D" fill="#FFEBA2"/>
  <rect id="793a0f6b09514ae1989126382c7f8565-ao-6" height="22.85156" width="256.64063" y="560.30676" x="622.49879" stroke="#2D2D2D" fill="#FFEBA2"/>
  <rect id="793a0f6b09514ae1989126382c7f8565-ao-7" height="25.48828" width="200.39063" y="617.43568" x="651.5027" stroke="#2D2D2D" fill="#FFEBA2"/>
  <rect id="793a0f6b09514ae1989126382c7f8565-ao-8" height="29.88281" width="173.14454" y="708.84193" x="135.66841" stroke="#2D2D2D" fill="#FFEBA2"/>
  <rect id="793a0f6b09514ae1989126382c7f8565-ao-9" height="24.60938" width="130.95703" y="478.56849" x="186.64497" stroke="#2D2D2D" fill="#FFEBA2"/>
  <rect id="793a0f6b09514ae1989126382c7f8565-ao-10" height="29.88281" width="168.75" y="407.37708" x="111.05903" stroke="#2D2D2D" fill="#FFEBA2"/>
  <rect id="793a0f6b09514ae1989126382c7f8565-ao-11" height="31.64063" width="257.51954" y="261.47863" x="67.11372" stroke="#2D2D2D" fill="#FF7E7E" class="qshape"/>
  <rect id="793a0f6b09514ae1989126382c7f8565-ao-12" height="46.875" width="133.59375" y="1023.24007" x="138.61287" stroke="#2D2D2D" fill="#FFEBA2"/>
  <rect id="793a0f6b09514ae1989126382c7f8565-ao-13" height="32.8125" width="153.51562" y="988.08382" x="764.39412" stroke="#2D2D2D" fill="#FFEBA2"/>
  <rect id="793a0f6b09514ae1989126382c7f8565-ao-14" height="32.8125" width="127.73437" y="841.59945" x="709.31599" stroke="#2D2D2D" fill="#FFEBA2"/>
  <rect id="793a0f6b09514ae1989126382c7f8565-ao-15" height="25.78125" width="152.34375" y="800.58383" x="759.70662" stroke="#2D2D2D" fill="#FFEBA2"/>
  <rect id="793a0f6b09514ae1989126382c7f8565-ao-16" height="21.09375" width="202.73437" y="773.6307" x="654.23787" stroke="#2D2D2D" fill="#FFEBA2"/>
  <rect id="793a0f6b09514ae1989126382c7f8565-ao-17" height="31.64062" width="194.53125" y="781.83383" x="89.39413" stroke="#2D2D2D" fill="#FFEBA2"/>
  <rect id="793a0f6b09514ae1989126382c7f8565-ao-18" height="23.4375" width="248.4375" y="824.02132" x="30.80038" stroke="#2D2D2D" fill="#FFEBA2"/>
  <rect id="793a0f6b09514ae1989126382c7f8565-ao-19" height="22.26562" width="182.8125" y="858.0057" x="117.51913" stroke="#2D2D2D" fill="#FFEBA2"/>
  <rect id="793a0f6b09514ae1989126382c7f8565-ao-20" height="23.4375" width="200.39062" y="897.84945" x="115.17538" stroke="#2D2D2D" fill="#FFEBA2"/>
  <rect id="793a0f6b09514ae1989126382c7f8565-ao-21" height="21.09375" width="145.3125" y="948.24007" x="189.0035" stroke="#2D2D2D" fill="#FFEBA2"/>
 </g>
</svg>