<svg xmlns="http://www.w3.org/2000/svg" width="923.0000000000001" height="1280">
 <!-- Created with Image Occlusion Enhanced -->
 <g>
  <title>Labels</title>
 </g>
 <g>
  <title>Masks</title>
  <rect id="7acac2e1c1e945fdba6c8e8f44c531e1-ao-1" height="36.63651" width="106.57895" y="205.44412" x="83.94896" stroke="#2D2D2D" fill="#FFEBA2"/>
  <rect id="7acac2e1c1e945fdba6c8e8f44c531e1-ao-2" height="23.31415" width="68.83224" y="253.1826" x="102.82232" stroke="#2D2D2D" fill="#FFEBA2"/>
  <rect id="7acac2e1c1e945fdba6c8e8f44c531e1-ao-3" height="41.0773" width="108.79934" y="289.81912" x="66.18581" stroke="#2D2D2D" fill="#FFEBA2"/>
  <rect id="7acac2e1c1e945fdba6c8e8f44c531e1-ao-4" height="22.20395" width="73.27303" y="338.6678" x="95.05094" stroke="#2D2D2D" fill="#FFEBA2"/>
  <rect id="7acac2e1c1e945fdba6c8e8f44c531e1-ao-5" height="28.86513" width="46.62829" y="371.97372" x="126.13646" stroke="#2D2D2D" fill="#FFEBA2"/>
  <rect id="7acac2e1c1e945fdba6c8e8f44c531e1-ao-6" height="18.87336" width="48.84869" y="420.82241" x="129.46706" stroke="#2D2D2D" fill="#FFEBA2"/>
  <rect id="7acac2e1c1e945fdba6c8e8f44c531e1-ao-7" height="17.76316" width="57.73026" y="461.89971" x="121.69567" stroke="#2D2D2D" fill="#FFEBA2"/>
  <rect id="7acac2e1c1e945fdba6c8e8f44c531e1-ao-8" height="41.0773" width="84.375" y="198.78293" x="351.50654" stroke="#2D2D2D" fill="#FFEBA2"/>
  <rect id="7acac2e1c1e945fdba6c8e8f44c531e1-ao-9" height="19.98355" width="49.95888" y="246.52142" x="352.61673" stroke="#2D2D2D" fill="#FFEBA2"/>
  <rect id="7acac2e1c1e945fdba6c8e8f44c531e1-ao-10" height="31.08553" width="76.60362" y="273.16616" x="407.01641" stroke="#2D2D2D" fill="#FFEBA2"/>
  <rect id="7acac2e1c1e945fdba6c8e8f44c531e1-ao-11" height="36.63651" width="81.04441" y="312.02307" x="408.1266" stroke="#2D2D2D" fill="#FFEBA2"/>
  <rect id="7acac2e1c1e945fdba6c8e8f44c531e1-ao-12" height="27.75493" width="58.84046" y="349.76978" x="369.26969" stroke="#2D2D2D" fill="#FFEBA2"/>
  <rect id="7acac2e1c1e945fdba6c8e8f44c531e1-ao-13" height="15.54276" width="63.28125" y="386.40629" x="344.84535" stroke="#2D2D2D" fill="#FFEBA2"/>
  <rect id="7acac2e1c1e945fdba6c8e8f44c531e1-ao-14" height="27.75493" width="79.93421" y="423.0428" x="325.972" stroke="#2D2D2D" fill="#FFEBA2"/>
  <rect id="7acac2e1c1e945fdba6c8e8f44c531e1-ao-15" height="26.64474" width="46.62829" y="465.23031" x="321.53121" stroke="#2D2D2D" fill="#FFEBA2"/>
  <rect id="7acac2e1c1e945fdba6c8e8f44c531e1-ao-16" height="28.86513" width="87.70559" y="385.29609" x="469.18746" stroke="#2D2D2D" fill="#FFEBA2"/>
  <rect id="7acac2e1c1e945fdba6c8e8f44c531e1-ao-17" height="21.09375" width="42.1875" y="429.70399" x="704.54931" stroke="#2D2D2D" fill="#FFEBA2"/>
  <rect id="7acac2e1c1e945fdba6c8e8f44c531e1-ao-18" height="24.42434" width="36.63651" y="394.17767" x="702.32891" stroke="#2D2D2D" fill="#FFEBA2"/>
  <rect id="7acac2e1c1e945fdba6c8e8f44c531e1-ao-19" height="21.09375" width="47.73849" y="355.32076" x="707.8799" stroke="#2D2D2D" fill="#FFEBA2"/>
  <rect id="7acac2e1c1e945fdba6c8e8f44c531e1-ao-20" height="16.65296" width="84.375" y="324.23524" x="708.9901" stroke="#2D2D2D" fill="#FFEBA2"/>
  <rect id="7acac2e1c1e945fdba6c8e8f44c531e1-ao-21" height="37.74671" width="95.47698" y="263.17438" x="701.21872" stroke="#2D2D2D" fill="#FFEBA2"/>
  <rect id="7acac2e1c1e945fdba6c8e8f44c531e1-ao-22" height="39.96711" width="63.28125" y="220.98688" x="500.27299" stroke="#2D2D2D" fill="#FFEBA2"/>
  <rect id="7acac2e1c1e945fdba6c8e8f44c531e1-ao-23" height="22.20395" width="91.03619" y="558.48689" x="705.6595" stroke="#2D2D2D" fill="#FFEBA2"/>
  <rect id="7acac2e1c1e945fdba6c8e8f44c531e1-ao-24" height="17.76316" width="140.99507" y="804.95071" x="163.88318" stroke="#2D2D2D" fill="#FFEBA2"/>
  <rect id="7acac2e1c1e945fdba6c8e8f44c531e1-ao-25" height="16.65296" width="67.72204" y="830.48525" x="183.86673" stroke="#2D2D2D" fill="#FFEBA2"/>
  <rect id="7acac2e1c1e945fdba6c8e8f44c531e1-ao-26" height="12.21217" width="28.86513" y="853.79939" x="210.51147" stroke="#2D2D2D" fill="#FFEBA2"/>
  <rect id="7acac2e1c1e945fdba6c8e8f44c531e1-ao-27" height="19.98355" width="26.64474" y="873.78295" x="227.16443" stroke="#2D2D2D" fill="#FFEBA2"/>
  <rect id="7acac2e1c1e945fdba6c8e8f44c531e1-ao-28" height="16.65296" width="49.95888" y="899.31749" x="241.59699" stroke="#2D2D2D" fill="#FFEBA2"/>
  <rect id="7acac2e1c1e945fdba6c8e8f44c531e1-ao-29" height="19.98355" width="97.69737" y="1099.15302" x="86.16936" stroke="#2D2D2D" fill="#FFEBA2"/>
  <rect id="7acac2e1c1e945fdba6c8e8f44c531e1-ao-30" height="15.54276" width="89.92599" y="1081.38986" x="132.79765" stroke="#2D2D2D" fill="#FFEBA2"/>
  <rect id="7acac2e1c1e945fdba6c8e8f44c531e1-ao-31" height="14.43257" width="131.00329" y="1044.75335" x="190.52791" stroke="#2D2D2D" fill="#FFEBA2"/>
  <rect id="7acac2e1c1e945fdba6c8e8f44c531e1-ao-32" height="18.87336" width="41.0773" y="1041.42275" x="593.52957" stroke="#2D2D2D" fill="#FFEBA2"/>
  <rect id="7acac2e1c1e945fdba6c8e8f44c531e1-ao-33" height="13.32237" width="69.94244" y="1062.5165" x="159.44239" stroke="#2D2D2D" fill="#FFEBA2"/>
  <rect id="7acac2e1c1e945fdba6c8e8f44c531e1-ao-34" height="14.43257" width="57.73026" y="900.42768" x="571.32562" stroke="#2D2D2D" fill="#FFEBA2"/>
  <rect id="7acac2e1c1e945fdba6c8e8f44c531e1-ao-35" height="17.76316" width="22.20395" y="873.78295" x="619.06411" stroke="#2D2D2D" fill="#FFEBA2"/>
  <rect id="7acac2e1c1e945fdba6c8e8f44c531e1-ao-36" height="18.87336" width="26.64474" y="850.4688" x="637.93746" stroke="#2D2D2D" fill="#FFEBA2"/>
  <rect id="7acac2e1c1e945fdba6c8e8f44c531e1-ao-37" height="15.54276" width="56.62007" y="837.14643" x="647.92924" stroke="#2D2D2D" fill="#FFEBA2"/>
  
  <rect id="7acac2e1c1e945fdba6c8e8f44c531e1-ao-39" height="11.10197" width="143.21546" y="799.39972" x="595.74996" stroke="#2D2D2D" fill="#FFEBA2"/>
  <rect id="7acac2e1c1e945fdba6c8e8f44c531e1-ao-40" height="17.76316" width="82.15461" y="1103.59381" x="712.32069" stroke="#2D2D2D" fill="#FFEBA2"/>
  <rect id="7acac2e1c1e945fdba6c8e8f44c531e1-ao-41" height="16.65296" width="105.46875" y="1079.16947" x="651.25983" stroke="#2D2D2D" fill="#FFEBA2"/>
  <rect id="7acac2e1c1e945fdba6c8e8f44c531e1-ao-42" height="13.32237" width="62.17105" y="1059.18591" x="651.25983" stroke="#2D2D2D" fill="#FFEBA2"/>
 </g>
</svg>