<svg xmlns="http://www.w3.org/2000/svg" width="960.9999999999999" height="1280">
 <!-- Created with Image Occlusion Enhanced -->
 <g>
  <title>Labels</title>
 </g>
 <g>
  <title>Masks</title>
  <rect id="80854af6809f44109de609c50277430a-ao-1" height="28.125" width="82.8125" y="881.98389" x="659.09403" stroke="#2D2D2D" fill="#FFEBA2"/>
  <rect id="80854af6809f44109de609c50277430a-ao-2" height="29.6875" width="96.875" y="819.48388" x="665.34403" stroke="#2D2D2D" fill="#FFEBA2"/>
  <rect id="80854af6809f44109de609c50277430a-ao-3" height="29.6875" width="157.81251" y="724.17138" x="741.90654" stroke="#2D2D2D" fill="#FFEBA2"/>
  <rect id="80854af6809f44109de609c50277430a-ao-4" height="34.375" width="215.62501" y="642.92136" x="702.84403" stroke="#2D2D2D" fill="#FFEBA2"/>
  
  <rect id="80854af6809f44109de609c50277430a-ao-5" height="31.25" width="143.75001" y="528.85886" x="613.78153" stroke="#2D2D2D" fill="#FFEBA2"/>
  <rect id="80854af6809f44109de609c50277430a-ao-6" height="35.9375" width="167.18751" y="178.85883" x="637.21903" stroke="#2D2D2D" fill="#FFEBA2"/>
  <rect id="80854af6809f44109de609c50277430a-ao-7" height="54.6875" width="101.5625" y="133.54632" x="134.09401" stroke="#2D2D2D" fill="#FFEBA2"/>
  <rect id="80854af6809f44109de609c50277430a-ao-8" height="57.8125" width="118.75" y="271.04633" x="182.53152" stroke="#2D2D2D" fill="#FFEBA2"/>
  <rect id="80854af6809f44109de609c50277430a-ao-9" height="35.9375" width="73.4375" y="344.48383" x="216.90652" stroke="#2D2D2D" fill="#FFEBA2"/>
  <rect id="80854af6809f44109de609c50277430a-ao-10" height="26.5625" width="228.12501" y="405.42133" x="138.78151" stroke="#2D2D2D" fill="#FFEBA2"/>
  <rect id="80854af6809f44109de609c50277430a-ao-11" height="35.9375" width="143.75001" y="471.04634" x="205.96902" stroke="#2D2D2D" fill="#FFEBA2"/>
  
  <rect id="80854af6809f44109de609c50277430a-ao-12" height="54.6875" width="115.625" y="516.35884" x="93.46901" stroke="#2D2D2D" fill="#FFEBA2"/>
  <rect id="80854af6809f44109de609c50277430a-ao-13" height="31.25" width="151.56251" y="606.98385" x="184.09402" stroke="#2D2D2D" fill="#FFEBA2"/>
  <rect id="80854af6809f44109de609c50277430a-ao-14" height="29.6875" width="107.8125" y="646.04635" x="224.71902" stroke="#2D2D2D" fill="#FFEBA2"/>
  <rect id="80854af6809f44109de609c50277430a-ao-15" height="31.25" width="220.31251" y="700.73385" x="37.21901" stroke="#2D2D2D" fill="#FFEBA2"/>
  
  <rect id="80854af6809f44109de609c50277430a-ao-17" height="26.5625" width="212.50001" y="792.92136" x="29.40651" stroke="#2D2D2D" fill="#FFEBA2"/>
 </g>
</svg>