<svg xmlns="http://www.w3.org/2000/svg" width="2560" height="1440">
 <!-- Created with Image Occlusion Enhanced -->
 <g>
  <title>Labels</title>
 </g>
 <g>
  <title>Masks</title>
  <rect id="8a9cbb840a5546fea8b17d996fd21334-ao-1" height="38.67187" width="151.17187" y="24.34677" x="906.91373" stroke="#2D2D2D" fill="#FFEBA2"/>
  <rect id="8a9cbb840a5546fea8b17d996fd21334-ao-2" height="47.46094" width="212.69531" y="98.1749" x="1163.55435" stroke="#2D2D2D" fill="#FFEBA2"/>
  <rect id="8a9cbb840a5546fea8b17d996fd21334-ao-3" height="43.94531" width="256.64062" y="370.63584" x="516.67936" stroke="#2D2D2D" fill="#FFEBA2"/>
  <rect id="8a9cbb840a5546fea8b17d996fd21334-ao-4" height="31.64062" width="147.65625" y="469.07334" x="585.23405" stroke="#2D2D2D" fill="#FFEBA2"/>
  <rect id="8a9cbb840a5546fea8b17d996fd21334-ao-5" height="42.1875" width="189.84375" y="528.83896" x="551.83561" stroke="#2D2D2D" fill="#FFEBA2"/>
  <rect id="8a9cbb840a5546fea8b17d996fd21334-ao-6" height="33.39844" width="181.05468" y="632.5499" x="565.89811" stroke="#2D2D2D" fill="#FF7E7E" class="qshape"/>
  <rect id="8a9cbb840a5546fea8b17d996fd21334-ao-7" height="42.1875" width="225" y="750.32335" x="541.28873" stroke="#2D2D2D" fill="#FFEBA2"/>
  <rect id="8a9cbb840a5546fea8b17d996fd21334-ao-8" height="33.39844" width="219.72656" y="843.48741" x="530.74186" stroke="#2D2D2D" fill="#FFEBA2"/>
  <rect id="8a9cbb840a5546fea8b17d996fd21334-ao-9" height="36.91406" width="221.48437" y="919.07335" x="528.98405" stroke="#2D2D2D" fill="#FFEBA2"/>
  <rect id="8a9cbb840a5546fea8b17d996fd21334-ao-10" height="31.64062" width="256.64062" y="1045.63586" x="509.64811" stroke="#2D2D2D" fill="#FFEBA2"/>
  <rect id="8a9cbb840a5546fea8b17d996fd21334-ao-11" height="35.15625" width="196.875" y="1103.64367" x="534.25749" stroke="#2D2D2D" fill="#FFEBA2"/>
  <rect id="8a9cbb840a5546fea8b17d996fd21334-ao-12" height="29.88281" width="216.21093" y="1107.1593" x="1145.97623" stroke="#2D2D2D" fill="#FFEBA2"/>
  <rect id="8a9cbb840a5546fea8b17d996fd21334-ao-13" height="36.91406" width="166.99219" y="1151.10461" x="1144.21841" stroke="#2D2D2D" fill="#FFEBA2"/>
  <rect id="8a9cbb840a5546fea8b17d996fd21334-ao-14" height="38.67187" width="108.98437" y="602.66712" x="1191.67935" stroke="#2D2D2D" fill="#FFEBA2"/>
  <rect id="8a9cbb840a5546fea8b17d996fd21334-ao-15" height="42.1875" width="196.875" y="516.5343" x="1181.13248" stroke="#2D2D2D" fill="#FFEBA2"/>
  <rect id="8a9cbb840a5546fea8b17d996fd21334-ao-16" height="42.1875" width="182.8125" y="451.49524" x="1191.67935" stroke="#2D2D2D" fill="#FFEBA2"/>
  <rect id="8a9cbb840a5546fea8b17d996fd21334-ao-17" height="49.21875" width="119.53125" y="270.44054" x="1205.74185" stroke="#2D2D2D" fill="#FFEBA2"/>
  <rect id="8a9cbb840a5546fea8b17d996fd21334-ao-18" height="52.73437" width="209.17968" y="393.48742" x="1188.16373" stroke="#2D2D2D" fill="#FFEBA2"/>
  <rect id="8a9cbb840a5546fea8b17d996fd21334-ao-19" height="52.73437" width="202.14843" y="453.25305" x="1836.04326" stroke="#2D2D2D" fill="#FFEBA2"/>
  <rect id="8a9cbb840a5546fea8b17d996fd21334-ao-20" height="42.1875" width="263.67187" y="574.54211" x="1806.16045" stroke="#2D2D2D" fill="#FFEBA2"/>
  <rect id="8a9cbb840a5546fea8b17d996fd21334-ao-21" height="40.42969" width="275.97656" y="709.89367" x="1792.09795" stroke="#2D2D2D" fill="#FFEBA2"/>
  <rect id="8a9cbb840a5546fea8b17d996fd21334-ao-22" height="29.88281" width="228.51562" y="803.05773" x="2326.47294" stroke="#2D2D2D" fill="#FFEBA2"/>
  <rect id="8a9cbb840a5546fea8b17d996fd21334-ao-23" height="38.67187" width="237.30468" y="845.24523" x="2317.68388" stroke="#2D2D2D" fill="#FFEBA2"/>
  <rect id="8a9cbb840a5546fea8b17d996fd21334-ao-24" height="40.42969" width="202.14843" y="899.73741" x="2329.98857" stroke="#2D2D2D" fill="#FFEBA2"/>
 </g>
</svg>