<svg xmlns="http://www.w3.org/2000/svg" width="1023" height="1280">
 <!-- Created with Image Occlusion Enhanced -->
 <g>
  <title>Labels</title>
 </g>
 <g>
  <title>Masks</title>
  <rect id="8cf8613e004c4a91beb1e2f1f1b05274-ao-1" height="26.64474" width="180.59211" y="40.39471" x="426.17765" stroke="#2D2D2D" fill="#FFEBA2"/>
  <rect id="8cf8613e004c4a91beb1e2f1f1b05274-ao-2" height="25.16447" width="65.13158" y="210.62497" x="232.26318" stroke="#2D2D2D" fill="#FFEBA2"/>
  <rect id="8cf8613e004c4a91beb1e2f1f1b05274-ao-3" height="26.64474" width="143.58553" y="247.63155" x="152.32897" stroke="#2D2D2D" fill="#FFEBA2"/>
  <rect id="8cf8613e004c4a91beb1e2f1f1b05274-ao-4" height="20.72368" width="82.89474" y="286.11839" x="214.50002" stroke="#2D2D2D" fill="#FFEBA2"/>
  <rect id="8cf8613e004c4a91beb1e2f1f1b05274-ao-5" height="26.64474" width="75.49342" y="320.16445" x="221.90133" stroke="#2D2D2D" fill="#FFEBA2"/>
  <rect id="8cf8613e004c4a91beb1e2f1f1b05274-ao-6" height="23.68421" width="88.81579" y="363.09208" x="202.65791" stroke="#2D2D2D" fill="#FFEBA2"/>
  <rect id="8cf8613e004c4a91beb1e2f1f1b05274-ao-7" height="23.68421" width="99.17763" y="398.6184" x="202.65791" stroke="#2D2D2D" fill="#FFEBA2"/>
  <rect id="8cf8613e004c4a91beb1e2f1f1b05274-ao-8" height="20.72368" width="155.42763" y="445.98682" x="141.96712" stroke="#2D2D2D" fill="#FFEBA2"/>
  <rect id="8cf8613e004c4a91beb1e2f1f1b05274-ao-9" height="22.20395" width="71.05263" y="481.51313" x="220.42107" stroke="#2D2D2D" fill="#FFEBA2"/>
  <rect id="8cf8613e004c4a91beb1e2f1f1b05274-ao-10" height="16.28289" width="96.21711" y="478.55261" x="643.77634" stroke="#2D2D2D" fill="#FFEBA2"/>
  <rect id="8cf8613e004c4a91beb1e2f1f1b05274-ao-11" height="25.16447" width="162.82895" y="431.18419" x="660.05924" stroke="#2D2D2D" fill="#FFEBA2"/>
  <rect id="8cf8613e004c4a91beb1e2f1f1b05274-ao-12" height="19.24342" width="96.21711" y="400.09866" x="671.90134" stroke="#2D2D2D" fill="#FFEBA2"/>
  <rect id="8cf8613e004c4a91beb1e2f1f1b05274-ao-13" height="14.80263" width="162.82895" y="364.57234" x="667.46055" stroke="#2D2D2D" fill="#FFEBA2"/>
  <rect id="8cf8613e004c4a91beb1e2f1f1b05274-ao-14" height="31.08553" width="99.17763" y="317.20392" x="677.82239" stroke="#2D2D2D" fill="#FFEBA2"/>
  <rect id="8cf8613e004c4a91beb1e2f1f1b05274-ao-15" height="25.16447" width="145.06579" y="281.67761" x="692.62503" stroke="#2D2D2D" fill="#FFEBA2"/>
  <rect id="8cf8613e004c4a91beb1e2f1f1b05274-ao-16" height="25.16447" width="91.77632" y="240.23024" x="702.98687" stroke="#2D2D2D" fill="#FFEBA2"/>
  <rect id="8cf8613e004c4a91beb1e2f1f1b05274-ao-17" height="31.08553" width="167.26974" y="638.42103" x="405.45397" stroke="#2D2D2D" fill="#FFEBA2"/>
  <rect id="8cf8613e004c4a91beb1e2f1f1b05274-ao-18" height="37.00658" width="94.73684" y="956.67762" x="236.70397" stroke="#2D2D2D" fill="#FFEBA2"/>
  <rect id="8cf8613e004c4a91beb1e2f1f1b05274-ao-19" height="31.08553" width="72.5329" y="912.26972" x="244.10528" stroke="#2D2D2D" fill="#FFEBA2"/>
  <rect id="8cf8613e004c4a91beb1e2f1f1b05274-ao-20" height="28.125" width="85.85526" y="823.45393" x="720.75003" stroke="#2D2D2D" fill="#FFEBA2"/>
  <rect id="8cf8613e004c4a91beb1e2f1f1b05274-ao-21" height="22.20395" width="88.81579" y="873.78288" x="719.26976" stroke="#2D2D2D" fill="#FFEBA2"/>
  <rect id="8cf8613e004c4a91beb1e2f1f1b05274-ao-22" height="25.16447" width="103.61842" y="1042.53288" x="252.98686" stroke="#2D2D2D" fill="#FFEBA2"/>
  <rect id="8cf8613e004c4a91beb1e2f1f1b05274-ao-23" height="31.08553" width="97.69737" y="1007.00656" x="723.71055" stroke="#2D2D2D" fill="#FFEBA2"/>
  <rect id="8cf8613e004c4a91beb1e2f1f1b05274-ao-24" height="28.125" width="105.09869" y="915.23025" x="705.94739" stroke="#2D2D2D" fill="#FFEBA2"/>
  <rect id="8cf8613e004c4a91beb1e2f1f1b05274-ao-25" height="20.72368" width="167.26974" y="1004.04604" x="177.49344" stroke="#2D2D2D" fill="#FFEBA2"/>
  <rect id="8cf8613e004c4a91beb1e2f1f1b05274-ao-26" height="20.72368" width="134.70395" y="1086.94078" x="235.2237" stroke="#2D2D2D" fill="#FFEBA2"/>
  <rect id="8cf8613e004c4a91beb1e2f1f1b05274-ao-27" height="22.20395" width="149.50658" y="1057.33551" x="722.23029" stroke="#2D2D2D" fill="#FFEBA2"/>
  
  <rect id="8cf8613e004c4a91beb1e2f1f1b05274-ao-29" height="28.125" width="90.29605" y="1118.0263" x="288.51318" stroke="#2D2D2D" fill="#FFEBA2"/>
 </g>
</svg>