<svg xmlns="http://www.w3.org/2000/svg" width="1919.9999999999998" height="2560">
 <!-- Created with Image Occlusion Enhanced -->
 <g>
  <title>Labels</title>
 </g>
 <g>
  <title>Masks</title>
  <rect id="94fe86cb9aa14e6583f85d92cc150132-ao-1" height="78.125" width="328.125" y="1494.62248" x="1542.65807" stroke="#2D2D2D" fill="#FFEBA2"/>
  <rect id="94fe86cb9aa14e6583f85d92cc150132-ao-2" height="106.25" width="243.75" y="1647.74748" x="1542.65807" stroke="#2D2D2D" fill="#FFEBA2"/>
  <rect id="94fe86cb9aa14e6583f85d92cc150132-ao-3" height="87.5" width="346.87499" y="2066.49747" x="1558.28307" stroke="#2D2D2D" fill="#FFEBA2"/>
  <rect id="94fe86cb9aa14e6583f85d92cc150132-ao-4" height="46.875" width="184.375" y="1166.49748" x="1583.28307" stroke="#2D2D2D" fill="#FFEBA2"/>
  <rect id="94fe86cb9aa14e6583f85d92cc150132-ao-5" height="56.25" width="168.75" y="1069.62249" x="1595.78307" stroke="#2D2D2D" fill="#FFEBA2"/>
  <rect id="94fe86cb9aa14e6583f85d92cc150132-ao-6" height="87.5" width="178.125" y="763.37249" x="1561.40807" stroke="#2D2D2D" fill="#FFEBA2"/>
  <rect id="94fe86cb9aa14e6583f85d92cc150132-ao-7" height="59.375" width="275" y="2025.87247" x="723.90808" stroke="#2D2D2D" fill="#FFEBA2"/>
  <rect id="94fe86cb9aa14e6583f85d92cc150132-ao-8" height="81.25" width="512.49999" y="2191.49749" x="605.15808" stroke="#2D2D2D" fill="#FFEBA2"/>
  <rect id="94fe86cb9aa14e6583f85d92cc150132-ao-9" height="131.25" width="221.875" y="2291.49749" x="1698.90806" stroke="#2D2D2D" fill="#FFEBA2"/>
  <rect id="94fe86cb9aa14e6583f85d92cc150132-ao-10" height="125" width="200" y="1991.4975" x="8.28309" stroke="#2D2D2D" fill="#FFEBA2"/>
  <rect id="94fe86cb9aa14e6583f85d92cc150132-ao-11" height="53.125" width="368.74999" y="1344.62249" x="-1.09191" stroke="#2D2D2D" fill="#FFEBA2"/>
  <rect id="94fe86cb9aa14e6583f85d92cc150132-ao-12" height="62.5" width="343.74999" y="1235.24749" x="11.40809" stroke="#2D2D2D" fill="#FFEBA2"/>
  <rect id="94fe86cb9aa14e6583f85d92cc150132-ao-13" height="62.5" width="209.375" y="797.74748" x="5.15809" stroke="#2D2D2D" fill="#FFEBA2"/>
  <rect id="94fe86cb9aa14e6583f85d92cc150132-ao-14" height="50" width="271.875" y="603.99747" x="652.03308" stroke="#2D2D2D" fill="#FFEBA2"/>
  <rect id="94fe86cb9aa14e6583f85d92cc150132-ao-15" height="68.75" width="246.875" y="472.74747" x="667.65808" stroke="#2D2D2D" fill="#FFEBA2"/>
  <rect id="94fe86cb9aa14e6583f85d92cc150132-ao-16" height="71.875" width="278.125" y="232.12247" x="205.15809" stroke="#2D2D2D" fill="#FFEBA2"/>
  <rect id="94fe86cb9aa14e6583f85d92cc150132-ao-17" height="56.25" width="253.125" y="497.74747" x="61.40809" stroke="#2D2D2D" fill="#FFEBA2"/>
  <rect id="94fe86cb9aa14e6583f85d92cc150132-ao-18" height="71.875" width="234.375" y="266.49747" x="1211.40807" stroke="#2D2D2D" fill="#FFEBA2"/>
 </g>
</svg>