<svg xmlns="http://www.w3.org/2000/svg" width="2560" height="1706">
 <!-- Created with Image Occlusion Enhanced -->
 <g>
  <title>Labels</title>
 </g>
 <g>
  <title>Masks</title>
  <rect id="9a4954026fce492084c3768ad8c04155-ao-1" height="85.18519" width="351.85186" y="1608.12049" x="407.38312" stroke="#2D2D2D" fill="#FFEBA2"/>
  <rect id="9a4954026fce492084c3768ad8c04155-ao-2" height="96.2963" width="344.44445" y="1619.2316" x="1699.97573" stroke="#2D2D2D" fill="#FF7E7E" class="qshape"/>
  <rect id="9a4954026fce492084c3768ad8c04155-ao-3" height="66.66667" width="237.03704" y="1456.26863" x="99.97571" stroke="#2D2D2D" fill="#FFEBA2"/>
  <rect id="9a4954026fce492084c3768ad8c04155-ao-4" height="62.96296" width="192.59259" y="1219.23159" x="318.49423" stroke="#2D2D2D" fill="#FFEBA2"/>
  <rect id="9a4954026fce492084c3768ad8c04155-ao-5" height="48.14815" width="211.11111" y="1052.56493" x="544.42016" stroke="#2D2D2D" fill="#FFEBA2"/>
  <rect id="9a4954026fce492084c3768ad8c04155-ao-6" height="81.48148" width="262.96297" y="782.19455" x="162.93868" stroke="#2D2D2D" fill="#FFEBA2"/>
  <rect id="9a4954026fce492084c3768ad8c04155-ao-7" height="62.96296" width="155.55556" y="900.71307" x="803.67942" stroke="#2D2D2D" fill="#FFEBA2"/>
  <rect id="9a4954026fce492084c3768ad8c04155-ao-8" height="44.44444" width="122.22222" y="963.67604" x="1074.0498" stroke="#2D2D2D" fill="#FFEBA2"/>
  <rect id="9a4954026fce492084c3768ad8c04155-ao-9" height="59.25926" width="177.77778" y="485.89825" x="807.38313" stroke="#2D2D2D" fill="#FFEBA2"/>
  <rect id="9a4954026fce492084c3768ad8c04155-ao-10" height="62.96296" width="155.55556" y="356.26862" x="385.1609" stroke="#2D2D2D" fill="#FFEBA2"/>
  <rect id="9a4954026fce492084c3768ad8c04155-ao-11" height="70.37037" width="159.25926" y="67.37972" x="592.56831" stroke="#2D2D2D" fill="#FFEBA2"/>
  <rect id="9a4954026fce492084c3768ad8c04155-ao-12" height="62.96296" width="277.77778" y="159.97231" x="1811.08684" stroke="#2D2D2D" fill="#FFEBA2"/>
  <rect id="9a4954026fce492084c3768ad8c04155-ao-13" height="59.25926" width="233.33334" y="337.75009" x="1540.71647" stroke="#2D2D2D" fill="#FFEBA2"/>
  <rect id="9a4954026fce492084c3768ad8c04155-ao-14" height="77.77778" width="233.33334" y="622.93528" x="1411.08684" stroke="#2D2D2D" fill="#FFEBA2"/>
  <rect id="9a4954026fce492084c3768ad8c04155-ao-15" height="77.77778" width="288.88889" y="689.60195" x="2055.53129" stroke="#2D2D2D" fill="#FFEBA2"/>
  <rect id="9a4954026fce492084c3768ad8c04155-ao-16" height="74.07407" width="229.62963" y="945.15751" x="1418.49424" stroke="#2D2D2D" fill="#FFEBA2"/>
  <rect id="9a4954026fce492084c3768ad8c04155-ao-17" height="51.85185" width="233.33334" y="1037.7501" x="1670.3461" stroke="#2D2D2D" fill="#FFEBA2"/>
  <rect id="9a4954026fce492084c3768ad8c04155-ao-18" height="100" width="203.70371" y="1197.00936" x="2025.90166" stroke="#2D2D2D" fill="#FFEBA2"/>
  <rect id="9a4954026fce492084c3768ad8c04155-ao-19" height="81.48148" width="248.14815" y="1452.56492" x="2259.23499" stroke="#2D2D2D" fill="#FFEBA2"/>
  <rect id="9a4954026fce492084c3768ad8c04155-ao-20" height="92.59259" width="388.88889" y="1489.60196" x="1059.23498" stroke="#2D2D2D" fill="#FFEBA2"/>
 </g>
</svg>