<svg xmlns="http://www.w3.org/2000/svg" width="1919.9999999999998" height="2560">
 <!-- Created with Image Occlusion Enhanced -->
 <g>
  <title>Labels</title>
 </g>
 <g>
  <title>Masks</title>
  <rect id="a060d3e825dd4b1db6190cf4e8be45fb-ao-1" height="37.5" width="218.75" y="2326.46773" x="905.30687" stroke="#2D2D2D" fill="#FFEBA2"/>
  <rect id="a060d3e825dd4b1db6190cf4e8be45fb-ao-2" height="62.5" width="209.375" y="2304.59273" x="633.43188" stroke="#2D2D2D" fill="#FFEBA2"/>
  <rect id="a060d3e825dd4b1db6190cf4e8be45fb-ao-3" height="75" width="190.625" y="2345.21773" x="342.80688" stroke="#2D2D2D" fill="#FFEBA2"/>
  <rect id="a060d3e825dd4b1db6190cf4e8be45fb-ao-4" height="53.125" width="187.5" y="1754.59274" x="524.05688" stroke="#2D2D2D" fill="#FF7E7E" class="qshape"/>
  <rect id="a060d3e825dd4b1db6190cf4e8be45fb-ao-5" height="78.125" width="218.75" y="1854.59273" x="1224.05687" stroke="#2D2D2D" fill="#FFEBA2"/>
  <rect id="a060d3e825dd4b1db6190cf4e8be45fb-ao-6" height="43.75" width="243.75" y="2057.71773" x="939.68187" stroke="#2D2D2D" fill="#FFEBA2"/>
  <rect id="a060d3e825dd4b1db6190cf4e8be45fb-ao-7" height="46.875" width="221.875" y="1729.59274" x="861.55687" stroke="#2D2D2D" fill="#FFEBA2"/>
  <rect id="a060d3e825dd4b1db6190cf4e8be45fb-ao-8" height="59.375" width="237.5" y="1648.34274" x="852.18187" stroke="#2D2D2D" fill="#FFEBA2"/>
  <rect id="a060d3e825dd4b1db6190cf4e8be45fb-ao-9" height="34.375" width="218.75" y="1576.46774" x="874.05687" stroke="#2D2D2D" fill="#FFEBA2"/>
  <rect id="a060d3e825dd4b1db6190cf4e8be45fb-ao-10" height="115.625" width="156.25" y="1357.71774" x="1014.68187" stroke="#2D2D2D" fill="#FFEBA2"/>
  <rect id="a060d3e825dd4b1db6190cf4e8be45fb-ao-11" height="87.5" width="175" y="1342.09274" x="767.80688" stroke="#2D2D2D" fill="#FFEBA2"/>
  <rect id="a060d3e825dd4b1db6190cf4e8be45fb-ao-12" height="40.625" width="171.875" y="1282.71774" x="280.30688" stroke="#2D2D2D" fill="#FFEBA2"/>
  <rect id="a060d3e825dd4b1db6190cf4e8be45fb-ao-13" height="43.75" width="237.5" y="870.21773" x="911.55687" stroke="#2D2D2D" fill="#FFEBA2"/>
  <rect id="a060d3e825dd4b1db6190cf4e8be45fb-ao-14" height="56.25" width="203.125" y="1167.09273" x="520.93188" stroke="#2D2D2D" fill="#FFEBA2"/>
  <rect id="a060d3e825dd4b1db6190cf4e8be45fb-ao-15" height="128.125" width="162.5" y="726.46772" x="620.93188" stroke="#2D2D2D" fill="#FFEBA2"/>
  <rect id="a060d3e825dd4b1db6190cf4e8be45fb-ao-16" height="62.5" width="306.25" y="654.59272" x="1242.80687" stroke="#2D2D2D" fill="#FFEBA2"/>
  <rect id="a060d3e825dd4b1db6190cf4e8be45fb-ao-17" height="43.75" width="337.49999" y="748.34272" x="1195.93187" stroke="#2D2D2D" fill="#FFEBA2"/>
  <rect id="a060d3e825dd4b1db6190cf4e8be45fb-ao-18" height="62.5" width="346.87499" y="504.59272" x="1408.43187" stroke="#2D2D2D" fill="#FFEBA2"/>
  <rect id="a060d3e825dd4b1db6190cf4e8be45fb-ao-19" height="78.125" width="306.25" y="232.7177" x="1533.43186" stroke="#2D2D2D" fill="#FFEBA2"/>
  <rect id="a060d3e825dd4b1db6190cf4e8be45fb-ao-20" height="78.125" width="325" y="88.9677" x="1408.43187" stroke="#2D2D2D" fill="#FFEBA2"/>
  <rect id="a060d3e825dd4b1db6190cf4e8be45fb-ao-21" height="109.375" width="159.375" y="67.0927" x="1008.43187" stroke="#2D2D2D" fill="#FFEBA2"/>
  <rect id="a060d3e825dd4b1db6190cf4e8be45fb-ao-22" height="87.5" width="346.87499" y="17.0927" x="245.93188" stroke="#2D2D2D" fill="#FFEBA2"/>
 </g>
</svg>