<svg xmlns="http://www.w3.org/2000/svg" width="1919.9999999999998" height="2560">
 <!-- Created with Image Occlusion Enhanced -->
 <g>
  <title>Labels</title>
 </g>
 <g>
  <title>Masks</title>
  <rect id="b21930cca5ba45718fad41e65aa1f68f-ao-1" height="59.375" width="225" y="158.61052" x="1427.4795" stroke="#2D2D2D" fill="#FFEBA2"/>
  <rect id="b21930cca5ba45718fad41e65aa1f68f-ao-2" height="71.875" width="203.125" y="239.86052" x="1439.9795" stroke="#2D2D2D" fill="#FFEBA2"/>
  <rect id="b21930cca5ba45718fad41e65aa1f68f-ao-3" height="103.125" width="225" y="414.86052" x="1574.3545" stroke="#2D2D2D" fill="#FFEBA2"/>
  <rect id="b21930cca5ba45718fad41e65aa1f68f-ao-4" height="68.75" width="293.75" y="802.36055" x="1602.4795" stroke="#2D2D2D" fill="#FFEBA2"/>
  <rect id="b21930cca5ba45718fad41e65aa1f68f-ao-5" height="53.125" width="281.25" y="964.86054" x="1583.7295" stroke="#2D2D2D" fill="#FFEBA2"/>
  <rect id="b21930cca5ba45718fad41e65aa1f68f-ao-6" height="112.5" width="175" y="1833.61056" x="1727.4795" stroke="#2D2D2D" fill="#FFEBA2"/>
  <rect id="b21930cca5ba45718fad41e65aa1f68f-ao-7" height="68.75" width="190.625" y="1964.86056" x="1711.8545" stroke="#2D2D2D" fill="#FFEBA2"/>
  <rect id="b21930cca5ba45718fad41e65aa1f68f-ao-8" height="84.375" width="271.875" y="2367.98558" x="1518.1045" stroke="#2D2D2D" fill="#FFEBA2"/>
  <rect id="b21930cca5ba45718fad41e65aa1f68f-ao-9" height="68.75" width="275" y="1705.48559" x="814.97951" stroke="#2D2D2D" fill="#FFEBA2"/>
  <rect id="b21930cca5ba45718fad41e65aa1f68f-ao-10" height="68.75" width="234.375" y="1624.23559" x="839.97951" stroke="#2D2D2D" fill="#FFEBA2"/>
  <rect id="b21930cca5ba45718fad41e65aa1f68f-ao-11" height="75" width="293.75" y="1539.86059" x="805.60451" stroke="#2D2D2D" fill="#FFEBA2"/>
  <rect id="b21930cca5ba45718fad41e65aa1f68f-ao-12" height="71.875" width="209.375" y="2258.61059" x="225.84257" stroke="#2D2D2D" fill="#FFEBA2"/>
  <rect id="b21930cca5ba45718fad41e65aa1f68f-ao-13" height="62.5" width="281.25" y="2092.98559" x="-5.40743" stroke="#2D2D2D" fill="#FFEBA2"/>
  <rect id="b21930cca5ba45718fad41e65aa1f68f-ao-14" height="59.375" width="234.375" y="2021.1106" x="7.09257" stroke="#2D2D2D" fill="#FFEBA2"/>
  <rect id="b21930cca5ba45718fad41e65aa1f68f-ao-15" height="56.25" width="209.375" y="1852.3606" x="-2.28243" stroke="#2D2D2D" fill="#FFEBA2"/>
  <rect id="b21930cca5ba45718fad41e65aa1f68f-ao-16" height="62.5" width="193.75" y="1439.86059" x="3.96757" stroke="#2D2D2D" fill="#FFEBA2"/>
  <rect id="b21930cca5ba45718fad41e65aa1f68f-ao-17" height="75" width="209.375" y="1336.73559" x="13.34257" stroke="#2D2D2D" fill="#FFEBA2"/>
  <rect id="b21930cca5ba45718fad41e65aa1f68f-ao-18" height="65.625" width="140.625" y="1230.48559" x="19.59257" stroke="#2D2D2D" fill="#FFEBA2"/>
  <rect id="b21930cca5ba45718fad41e65aa1f68f-ao-19" height="65.625" width="168.75" y="1133.61058" x="10.21757" stroke="#2D2D2D" fill="#FF7E7E" class="qshape"/>
  <rect id="b21930cca5ba45718fad41e65aa1f68f-ao-20" height="62.5" width="128.125" y="1033.61058" x="53.96757" stroke="#2D2D2D" fill="#FFEBA2"/>
  <rect id="b21930cca5ba45718fad41e65aa1f68f-ao-21" height="53.125" width="187.5" y="964.86058" x="13.34257" stroke="#2D2D2D" fill="#FFEBA2"/>
  <rect id="b21930cca5ba45718fad41e65aa1f68f-ao-22" height="53.125" width="193.75" y="892.98558" x="13.34257" stroke="#2D2D2D" fill="#FFEBA2"/>
  <rect id="b21930cca5ba45718fad41e65aa1f68f-ao-23" height="56.25" width="278.125" y="727.36057" x="13.34257" stroke="#2D2D2D" fill="#FFEBA2"/>
  <rect id="b21930cca5ba45718fad41e65aa1f68f-ao-24" height="59.375" width="271.875" y="642.98557" x="16.46757" stroke="#2D2D2D" fill="#FFEBA2"/>
  <rect id="b21930cca5ba45718fad41e65aa1f68f-ao-25" height="84.375" width="256.25" y="302.36056" x="16.46757" stroke="#2D2D2D" fill="#FFEBA2"/>
 </g>
</svg>