<svg xmlns="http://www.w3.org/2000/svg" width="2560" height="1706">
 <!-- Created with Image Occlusion Enhanced -->
 <g>
  <title>Labels</title>
 </g>
 <g>
  <title>Masks</title>
  <rect id="c3aac8768ee44614bee7023292faeb38-ao-1" height="66.66667" width="192.59259" y="182.19454" x="2309.4996" stroke="#2D2D2D" fill="#FFEBA2"/>
  <rect id="c3aac8768ee44614bee7023292faeb38-ao-2" height="44.44444" width="233.33334" y="511.82417" x="2309.4996" stroke="#2D2D2D" fill="#FFEBA2"/>
  <rect id="c3aac8768ee44614bee7023292faeb38-ao-3" height="62.96296" width="266.66667" y="719.23158" x="2298.38849" stroke="#2D2D2D" fill="#FF7E7E" class="qshape"/>
  <rect id="c3aac8768ee44614bee7023292faeb38-ao-4" height="59.25926" width="218.51852" y="445.1575" x="1187.27737" stroke="#2D2D2D" fill="#FFEBA2"/>
  <rect id="c3aac8768ee44614bee7023292faeb38-ao-5" height="66.66667" width="118.51852" y="841.4538" x="1216.907" stroke="#2D2D2D" fill="#FFEBA2"/>
  <rect id="c3aac8768ee44614bee7023292faeb38-ao-6" height="55.55556" width="177.77778" y="993.30566" x="1176.16626" stroke="#2D2D2D" fill="#FFEBA2"/>
  <rect id="c3aac8768ee44614bee7023292faeb38-ao-7" height="55.55556" width="177.77778" y="1074.78714" x="1190.98107" stroke="#2D2D2D" fill="#FFEBA2"/>
  <rect id="c3aac8768ee44614bee7023292faeb38-ao-8" height="59.25926" width="122.22222" y="1159.97232" x="1216.907" stroke="#2D2D2D" fill="#FFEBA2"/>
  <rect id="c3aac8768ee44614bee7023292faeb38-ao-9" height="62.96296" width="177.77778" y="1411.82418" x="1153.94403" stroke="#2D2D2D" fill="#FFEBA2"/>
  <rect id="c3aac8768ee44614bee7023292faeb38-ao-10" height="59.25926" width="140.74074" y="1578.49085" x="1187.27737" stroke="#2D2D2D" fill="#FFEBA2"/>
  <rect id="c3aac8768ee44614bee7023292faeb38-ao-11" height="66.66667" width="207.40741" y="1608.12048" x="742.83292" stroke="#2D2D2D" fill="#FFEBA2"/>
  <rect id="c3aac8768ee44614bee7023292faeb38-ao-12" height="44.44444" width="203.70371" y="1656.26863" x="298.38847" stroke="#2D2D2D" fill="#FFEBA2"/>
  
  <rect id="c3aac8768ee44614bee7023292faeb38-ao-13" height="59.25926" width="214.81482" y="1637.75011" x="20.61069" stroke="#2D2D2D" fill="#FFEBA2"/>
  <rect id="c3aac8768ee44614bee7023292faeb38-ao-14" height="74.07407" width="188.88889" y="1178.49084" x="313.20328" stroke="#2D2D2D" fill="#FFEBA2"/>
  <rect id="c3aac8768ee44614bee7023292faeb38-ao-15" height="74.07407" width="240.74074" y="878.49084" x="-5.31524" stroke="#2D2D2D" fill="#FFEBA2"/>
  <rect id="c3aac8768ee44614bee7023292faeb38-ao-16" height="40.74074" width="237.03704" y="308.12046" x="-12.72265" stroke="#2D2D2D" fill="#FFEBA2"/>
  <rect id="c3aac8768ee44614bee7023292faeb38-ao-17" height="33.33333" width="211.11111" y="248.8612" x="2.09217" stroke="#2D2D2D" fill="#FFEBA2"/>
  <rect id="c3aac8768ee44614bee7023292faeb38-ao-18" height="48.14815" width="214.81482" y="174.78713" x="2.09217" stroke="#2D2D2D" fill="#FFEBA2"/>
  <rect id="c3aac8768ee44614bee7023292faeb38-ao-19" height="40.74074" width="181.48148" y="111.82416" x="16.90698" stroke="#2D2D2D" fill="#FFEBA2"/>
 </g>
</svg>