<svg xmlns="http://www.w3.org/2000/svg" width="1919.9999999999998" height="2560">
 <!-- Created with Image Occlusion Enhanced -->
 <g>
  <title>Labels</title>
 </g>
 <g>
  <title>Masks</title>
  <rect id="cb39cf8136a44777929e0bc635375b5c-ao-1" height="60.9375" width="182.8125" y="1563.44444" x="1495.96683" stroke="#2D2D2D" fill="#FFEBA2"/>
  <rect id="cb39cf8136a44777929e0bc635375b5c-ao-2" height="35.15625" width="346.87499" y="1343.13194" x="1355.34183" stroke="#2D2D2D" fill="#FFEBA2"/>
  <rect id="cb39cf8136a44777929e0bc635375b5c-ao-3" height="44.53125" width="529.68749" y="1284.53819" x="1374.09183" stroke="#2D2D2D" fill="#FFEBA2"/>
  
  <rect id="cb39cf8136a44777929e0bc635375b5c-ao-5" height="56.25" width="442.96874" y="1019.69443" x="1390.49808" stroke="#2D2D2D" fill="#FFEBA2"/>
  <rect id="cb39cf8136a44777929e0bc635375b5c-ao-6" height="44.53125" width="222.65625" y="307.1944" x="1601.43558" stroke="#2D2D2D" fill="#FFEBA2"/>
  <rect id="cb39cf8136a44777929e0bc635375b5c-ao-7" height="46.875" width="112.5" y="182.97566" x="1636.59183" stroke="#2D2D2D" fill="#FFEBA2"/>
  <rect id="cb39cf8136a44777929e0bc635375b5c-ao-8" height="79.6875" width="297.65625" y="77.50691" x="1488.93558" stroke="#2D2D2D" fill="#FFEBA2"/>
  <rect id="cb39cf8136a44777929e0bc635375b5c-ao-9" height="49.21875" width="260.15625" y="9.53814" x="1277.99809" stroke="#2D2D2D" fill="#FFEBA2"/>
  <rect id="cb39cf8136a44777929e0bc635375b5c-ao-10" height="53.90625" width="147.65625" y="4.85064" x="1123.31059" stroke="#2D2D2D" fill="#FFEBA2"/>
  <rect id="cb39cf8136a44777929e0bc635375b5c-ao-11" height="51.5625" width="236.71875" y="105.63189" x="29.11413" stroke="#2D2D2D" fill="#FFEBA2"/>
  <rect id="cb39cf8136a44777929e0bc635375b5c-ao-12" height="42.1875" width="232.03125" y="422.03813" x="-6.04212" stroke="#2D2D2D" fill="#FFEBA2"/>
  <rect id="cb39cf8136a44777929e0bc635375b5c-ao-13" height="37.5" width="173.4375" y="494.69438" x="8.02038" stroke="#2D2D2D" fill="#FFEBA2"/>
  <rect id="cb39cf8136a44777929e0bc635375b5c-ao-14" height="37.5" width="173.4375" y="557.97563" x="5.67663" stroke="#2D2D2D" fill="#FFEBA2"/>
  <rect id="cb39cf8136a44777929e0bc635375b5c-ao-15" height="49.21875" width="407.81249" y="930.63191" x="19.73913" stroke="#2D2D2D" fill="#FFEBA2"/>
  <rect id="cb39cf8136a44777929e0bc635375b5c-ao-16" height="37.5" width="433.59374" y="1003.28816" x="8.02038" stroke="#2D2D2D" fill="#FFEBA2"/>
  <rect id="cb39cf8136a44777929e0bc635375b5c-ao-17" height="30.46875" width="250.78125" y="1078.28816" x="167.39538" stroke="#2D2D2D" fill="#FFEBA2"/>
  <rect id="cb39cf8136a44777929e0bc635375b5c-ao-18" height="35.15625" width="541.40624" y="1136.8819" x="19.73913" stroke="#2D2D2D" fill="#FFEBA2"/>
 </g>
</svg>