<svg xmlns="http://www.w3.org/2000/svg" width="2558" height="2560">
 <!-- Created with Image Occlusion Enhanced -->
 <g>
  <title>Labels</title>
 </g>
 <g>
  <title>Masks</title>
  <rect id="d7145711635c4c7884d3fa16e558dec5-ao-1" height="43.75" width="478.125" y="26.9141" x="1305.55111" stroke="#2D2D2D" fill="#FFEBA2"/>
  <rect id="d7145711635c4c7884d3fa16e558dec5-ao-2" height="37.5" width="228.125" y="92.5391" x="1705.55112" stroke="#2D2D2D" fill="#FFEBA2"/>
  <rect id="d7145711635c4c7884d3fa16e558dec5-ao-3" height="59.375" width="253.125" y="86.2891" x="2014.92612" stroke="#2D2D2D" fill="#FFEBA2"/>
  <rect id="d7145711635c4c7884d3fa16e558dec5-ao-4" height="43.75" width="193.75" y="151.9141" x="1874.30112" stroke="#2D2D2D" fill="#FFEBA2"/>
  <rect id="d7145711635c4c7884d3fa16e558dec5-ao-5" height="53.125" width="343.75" y="358.1641" x="911.80111" stroke="#2D2D2D" fill="#FFEBA2"/>
  <rect id="d7145711635c4c7884d3fa16e558dec5-ao-6" height="75" width="243.75" y="1061.28912" x="1789.92612" stroke="#2D2D2D" fill="#FFEBA2"/>
  <rect id="d7145711635c4c7884d3fa16e558dec5-ao-7" height="62.5" width="343.75" y="1045.66412" x="1268.05111" stroke="#2D2D2D" fill="#FFEBA2"/>
  <rect id="d7145711635c4c7884d3fa16e558dec5-ao-8" height="59.375" width="187.5" y="1183.16412" x="1308.67611" stroke="#2D2D2D" fill="#FFEBA2"/>
  <rect id="d7145711635c4c7884d3fa16e558dec5-ao-9" height="62.5" width="175" y="1273.78912" x="1308.67611" stroke="#2D2D2D" fill="#FFEBA2"/>
  
  <rect id="d7145711635c4c7884d3fa16e558dec5-ao-11" height="56.25" width="234.375" y="1261.28912" x="2243.05112" stroke="#2D2D2D" fill="#FFEBA2"/>
  <rect id="d7145711635c4c7884d3fa16e558dec5-ao-12" height="62.5" width="281.25" y="1526.91414" x="1214.92611" stroke="#2D2D2D" fill="#FFEBA2"/>
  <rect id="d7145711635c4c7884d3fa16e558dec5-ao-13" height="45.83333" width="187.50001" y="400.72663" x="142.40931" stroke="#2D2D2D" fill="#FFEBA2"/>
  <rect id="d7145711635c4c7884d3fa16e558dec5-ao-14" height="58.33333" width="345.83334" y="1167.39332" x="9.07597" stroke="#2D2D2D" fill="#FFEBA2"/>
  <rect id="d7145711635c4c7884d3fa16e558dec5-ao-15" height="41.66667" width="204.16667" y="1234.05998" x="84.07597" stroke="#2D2D2D" fill="#FFEBA2"/>
  <rect id="d7145711635c4c7884d3fa16e558dec5-ao-16" height="70.83334" width="300.00001" y="2084.06003" x="42.40931" stroke="#2D2D2D" fill="#FFEBA2"/>
  <rect id="d7145711635c4c7884d3fa16e558dec5-ao-17" height="45.83333" width="204.16667" y="2146.56003" x="1354.90934" stroke="#2D2D2D" fill="#FFEBA2"/>
  <rect id="d7145711635c4c7884d3fa16e558dec5-ao-18" height="66.66667" width="208.33334" y="2246.56004" x="1338.24268" stroke="#2D2D2D" fill="#FFEBA2"/>
 </g>
</svg>