<svg xmlns="http://www.w3.org/2000/svg" width="1919.9999999999998" height="2560">
 <!-- Created with Image Occlusion Enhanced -->
 <g>
  <title>Labels</title>
 </g>
 <g>
  <title>Masks</title>
  <rect id="db90dd90a0264e96ad9b5e83014dc1bc-ao-1" height="53.90625" width="178.125" y="1981.4132" x="636.92668" stroke="#2D2D2D" fill="#FFEBA2"/>
  <rect id="db90dd90a0264e96ad9b5e83014dc1bc-ao-2" height="87.5" width="268.75" y="2010.54512" x="18.5509" stroke="#2D2D2D" fill="#FFEBA2"/>
  <rect id="db90dd90a0264e96ad9b5e83014dc1bc-ao-3" height="62.5" width="231.25" y="1832.42012" x="18.5509" stroke="#2D2D2D" fill="#FFEBA2"/>
  <rect id="db90dd90a0264e96ad9b5e83014dc1bc-ao-4" height="56.25" width="256.25" y="1629.29512" x="9.1759" stroke="#2D2D2D" fill="#FFEBA2"/>
  <rect id="db90dd90a0264e96ad9b5e83014dc1bc-ao-5" height="56.25" width="212.5" y="1479.29512" x="856.05089" stroke="#2D2D2D" fill="#FFEBA2"/>
  <rect id="db90dd90a0264e96ad9b5e83014dc1bc-ao-6" height="46.875" width="106.25" y="1557.42012" x="909.17589" stroke="#2D2D2D" fill="#FFEBA2"/>
  <rect id="db90dd90a0264e96ad9b5e83014dc1bc-ao-7" height="43.75" width="175" y="1216.79511" x="877.92589" stroke="#2D2D2D" fill="#FFEBA2"/>
  <rect id="db90dd90a0264e96ad9b5e83014dc1bc-ao-8" height="68.75" width="240.625" y="1129.29511" x="821.67589" stroke="#2D2D2D" fill="#FFEBA2"/>
  <rect id="db90dd90a0264e96ad9b5e83014dc1bc-ao-9" height="56.25" width="162.5" y="1207.42011" x="18.5509" stroke="#2D2D2D" fill="#FF7E7E" class="qshape"/>
  <rect id="db90dd90a0264e96ad9b5e83014dc1bc-ao-10" height="68.75" width="228.125" y="1129.29511" x="18.5509" stroke="#2D2D2D" fill="#FFEBA2"/>
  <rect id="db90dd90a0264e96ad9b5e83014dc1bc-ao-11" height="65.625" width="228.125" y="1057.42011" x="15.4259" stroke="#2D2D2D" fill="#FFEBA2"/>
  <rect id="db90dd90a0264e96ad9b5e83014dc1bc-ao-12" height="43.75" width="271.875" y="960.5451" x="1615.42588" stroke="#2D2D2D" fill="#FFEBA2"/>
  <rect id="db90dd90a0264e96ad9b5e83014dc1bc-ao-13" height="46.875" width="178.125" y="888.6701" x="1699.80087" stroke="#2D2D2D" fill="#FFEBA2"/>
  <rect id="db90dd90a0264e96ad9b5e83014dc1bc-ao-14" height="50" width="287.5" y="682.4201" x="1609.17588" stroke="#2D2D2D" fill="#FFEBA2"/>
  <rect id="db90dd90a0264e96ad9b5e83014dc1bc-ao-15" height="43.75" width="300" y="610.5451" x="1606.05088" stroke="#2D2D2D" fill="#FFEBA2"/>
  <rect id="db90dd90a0264e96ad9b5e83014dc1bc-ao-16" height="56.25" width="118.75" y="910.54509" x="181.0509" stroke="#2D2D2D" fill="#FFEBA2"/>
  <rect id="db90dd90a0264e96ad9b5e83014dc1bc-ao-17" height="50" width="121.875" y="860.54509" x="396.67589" stroke="#2D2D2D" fill="#FFEBA2"/>
  <rect id="db90dd90a0264e96ad9b5e83014dc1bc-ao-18" height="37.5" width="181.25" y="854.29509" x="137.3009" stroke="#2D2D2D" fill="#FFEBA2"/>
  <rect id="db90dd90a0264e96ad9b5e83014dc1bc-ao-19" height="56.25" width="109.375" y="791.79509" x="181.0509" stroke="#2D2D2D" fill="#FFEBA2"/>
  <rect id="db90dd90a0264e96ad9b5e83014dc1bc-ao-20" height="53.125" width="253.125" y="551.17009" x="2.9259" stroke="#2D2D2D" fill="#FFEBA2"/>
  <rect id="db90dd90a0264e96ad9b5e83014dc1bc-ao-21" height="65.625" width="240.625" y="473.0451" x="15.4259" stroke="#2D2D2D" fill="#FFEBA2"/>
  <rect id="db90dd90a0264e96ad9b5e83014dc1bc-ao-22" height="50" width="184.375" y="516.79509" x="540.42589" stroke="#2D2D2D" fill="#FFEBA2"/>
  <rect id="db90dd90a0264e96ad9b5e83014dc1bc-ao-23" height="50" width="209.375" y="585.54509" x="496.67589" stroke="#2D2D2D" fill="#FFEBA2"/>
  <rect id="db90dd90a0264e96ad9b5e83014dc1bc-ao-24" height="53.125" width="143.75" y="316.79508" x="1331.05088" stroke="#2D2D2D" fill="#FFEBA2"/>
  <rect id="db90dd90a0264e96ad9b5e83014dc1bc-ao-25" height="59.375" width="175" y="398.04508" x="1349.80088" stroke="#2D2D2D" fill="#FFEBA2"/>
  <rect id="db90dd90a0264e96ad9b5e83014dc1bc-ao-26" height="43.75" width="184.375" y="44.92008" x="156.0509" stroke="#2D2D2D" fill="#FFEBA2"/>
  <rect id="db90dd90a0264e96ad9b5e83014dc1bc-ao-27" height="56.25" width="125" y="107.42008" x="193.5509" stroke="#2D2D2D" fill="#FFEBA2"/>
 </g>
</svg>