<svg xmlns="http://www.w3.org/2000/svg" width="1919.9999999999998" height="2560">
 <!-- Created with Image Occlusion Enhanced -->
 <g>
  <title>Labels</title>
 </g>
 <g>
  <title>Masks</title>
  
  <rect id="ec53488c330549a2b6f7851aaa710c56-ao-2" height="65.625" width="256.25" y="2381.67609" x="1387.15212" stroke="#2D2D2D" fill="#FFEBA2"/>
  <rect id="ec53488c330549a2b6f7851aaa710c56-ao-3" height="71.875" width="165.625" y="2050.42609" x="1609.02711" stroke="#2D2D2D" fill="#FFEBA2"/>
  <rect id="ec53488c330549a2b6f7851aaa710c56-ao-4" height="68.75" width="309.375" y="1947.30109" x="1562.15211" stroke="#2D2D2D" fill="#FFEBA2"/>
  <rect id="ec53488c330549a2b6f7851aaa710c56-ao-5" height="56.25" width="225" y="1828.55109" x="1646.52711" stroke="#2D2D2D" fill="#FFEBA2"/>
  <rect id="ec53488c330549a2b6f7851aaa710c56-ao-6" height="62.5" width="181.25" y="2403.55109" x="193.40213" stroke="#2D2D2D" fill="#FFEBA2"/>
  <rect id="ec53488c330549a2b6f7851aaa710c56-ao-7" height="71.875" width="246.875" y="2022.30109" x="27.77714" stroke="#2D2D2D" fill="#FFEBA2"/>
  <rect id="ec53488c330549a2b6f7851aaa710c56-ao-8" height="53.125" width="203.125" y="1912.92609" x="162.15213" stroke="#2D2D2D" fill="#FFEBA2"/>
  <rect id="ec53488c330549a2b6f7851aaa710c56-ao-9" height="53.125" width="218.75" y="1741.05108" x="155.90213" stroke="#2D2D2D" fill="#FFEBA2"/>
  <rect id="ec53488c330549a2b6f7851aaa710c56-ao-10" height="56.25" width="240.625" y="1816.05108" x="140.27713" stroke="#2D2D2D" fill="#FFEBA2"/>
  <rect id="ec53488c330549a2b6f7851aaa710c56-ao-11" height="50" width="256.25" y="1625.42608" x="871.52712" stroke="#2D2D2D" fill="#FFEBA2"/>
  <rect id="ec53488c330549a2b6f7851aaa710c56-ao-12" height="90.625" width="256.25" y="1456.67606" x="112.15213" stroke="#2D2D2D" fill="#FFEBA2"/>
  <rect id="ec53488c330549a2b6f7851aaa710c56-ao-13" height="71.875" width="303.125" y="1394.17606" x="115.27713" stroke="#2D2D2D" fill="#FFEBA2"/>
  <rect id="ec53488c330549a2b6f7851aaa710c56-ao-14" height="65.625" width="225" y="1231.67606" x="127.77713" stroke="#2D2D2D" fill="#FFEBA2"/>
  <rect id="ec53488c330549a2b6f7851aaa710c56-ao-15" height="68.75" width="281.25" y="1144.17606" x="99.65213" stroke="#2D2D2D" fill="#FFEBA2"/>
  <rect id="ec53488c330549a2b6f7851aaa710c56-ao-16" height="62.5" width="168.75" y="619.17605" x="90.27713" stroke="#2D2D2D" fill="#FFEBA2"/>
  <rect id="ec53488c330549a2b6f7851aaa710c56-ao-17" height="40.625" width="237.5" y="1125.42604" x="859.02712" stroke="#2D2D2D" fill="#FFEBA2"/>
  <rect id="ec53488c330549a2b6f7851aaa710c56-ao-18" height="78.125" width="325" y="681.67605" x="1615.27711" stroke="#2D2D2D" fill="#FFEBA2"/>
  <rect id="ec53488c330549a2b6f7851aaa710c56-ao-19" height="81.25" width="250" y="534.80105" x="1602.77711" stroke="#2D2D2D" fill="#FFEBA2"/>
  <rect id="ec53488c330549a2b6f7851aaa710c56-ao-20" height="68.75" width="243.75" y="353.55104" x="1549.65211" stroke="#2D2D2D" fill="#FFEBA2"/>
  <rect id="ec53488c330549a2b6f7851aaa710c56-ao-21" height="84.375" width="228.125" y="344.17604" x="280.90213" stroke="#2D2D2D" fill="#FFEBA2"/>
  <rect id="ec53488c330549a2b6f7851aaa710c56-ao-22" height="103.125" width="206.25" y="1691.05108" x="1702.77711" stroke="#2D2D2D" fill="#FFEBA2"/>
 </g>
</svg>