<svg xmlns="http://www.w3.org/2000/svg" width="2560" height="1440">
 <!-- Created with Image Occlusion Enhanced -->
 <g>
  <title>Labels</title>
 </g>
 <g>
  <title>Masks</title>
  <rect id="f655abe8a0314baf89738740c1337c39-ao-1" height="42.1875" width="79.10156" y="1224.1794" x="1481.29991" stroke="#2D2D2D" fill="#FFEBA2"/>
  <rect id="f655abe8a0314baf89738740c1337c39-ao-2" height="26.36719" width="77.34375" y="1166.17159" x="1129.73742" stroke="#2D2D2D" fill="#FFEBA2"/>
  <rect id="f655abe8a0314baf89738740c1337c39-ao-3" height="29.88281" width="73.82812" y="949.96066" x="825.63586" stroke="#2D2D2D" fill="#FFEBA2"/>
  <rect id="f655abe8a0314baf89738740c1337c39-ao-4" height="33.39844" width="131.83594" y="1006.21065" x="746.5343" stroke="#2D2D2D" fill="#FFEBA2"/>
  <rect id="f655abe8a0314baf89738740c1337c39-ao-5" height="20.76416" width="125.57373" y="1376.96031" x="409.08948" stroke="#2D2D2D" fill="#FFEBA2"/>
  <rect id="f655abe8a0314baf89738740c1337c39-ao-6" height="23.73047" width="115.68603" y="1165.36363" x="171.7848" stroke="#2D2D2D" fill="#FFEBA2"/>
  <rect id="f655abe8a0314baf89738740c1337c39-ao-7" height="31.64062" width="75.14648" y="826.21567" x="820.41759" stroke="#2D2D2D" fill="#FFEBA2"/>
  <rect id="f655abe8a0314baf89738740c1337c39-ao-8" height="21.75293" width="77.12402" y="711.51839" x="1139.79014" stroke="#2D2D2D" fill="#FFEBA2"/>
  <rect id="f655abe8a0314baf89738740c1337c39-ao-9" height="26.69678" width="89.97803" y="25.31232" x="419.91884" stroke="#2D2D2D" fill="#FFEBA2"/>
  <rect id="f655abe8a0314baf89738740c1337c39-ao-10" height="22.7417" width="112.71972" y="499.92171" x="1181.08307" stroke="#2D2D2D" fill="#FFEBA2"/>
  <rect id="f655abe8a0314baf89738740c1337c39-ao-11" height="24.71924" width="62.29248" y="992.32895" x="2403.15514" stroke="#2D2D2D" fill="#FFEBA2"/>
  <rect id="f655abe8a0314baf89738740c1337c39-ao-12" height="26.69678" width="90.96679" y="815.3392" x="2397.22252" stroke="#2D2D2D" fill="#FFEBA2"/>
  <rect id="f655abe8a0314baf89738740c1337c39-ao-13" height="30.65185" width="142.38281" y="136.05451" x="1927.557" stroke="#2D2D2D" fill="#FFEBA2"/>
  <rect id="f655abe8a0314baf89738740c1337c39-ao-14" height="26.69678" width="122.60742" y="61.8968" x="2232.09801" stroke="#2D2D2D" fill="#FFEBA2"/>
  <rect id="f655abe8a0314baf89738740c1337c39-ao-15" height="27.68555" width="78.11279" y="91.55989" x="2389.31236" stroke="#2D2D2D" fill="#FFEBA2"/>
  <rect id="f655abe8a0314baf89738740c1337c39-ao-16" height="25.04883" width="84.375" y="190.62608" x="2067.75949" stroke="#2D2D2D" fill="#FFEBA2"/>
  <rect id="f655abe8a0314baf89738740c1337c39-ao-17" height="32.95898" width="84.375" y="698.19446" x="2069.07785" stroke="#2D2D2D" fill="#FFEBA2"/>
  <rect id="f655abe8a0314baf89738740c1337c39-ao-18" height="19.77539" width="101.51367" y="534.71789" x="1786.94893" stroke="#2D2D2D" fill="#FF7E7E" class="qshape"/>
  <rect id="f655abe8a0314baf89738740c1337c39-ao-19" height="23.73047" width="114.69727" y="1055.46988" x="779.65952" stroke="#2D2D2D" fill="#FFEBA2"/>
  <rect id="f655abe8a0314baf89738740c1337c39-ao-20" height="29.00391" width="71.19141" y="746.97376" x="64.16701" stroke="#2D2D2D" fill="#FFEBA2"/>
  <rect id="f655abe8a0314baf89738740c1337c39-ao-21" height="21.09375" width="52.73438" y="509.66907" x="279.05959" stroke="#2D2D2D" fill="#FFEBA2"/>
 </g>
</svg>