<svg xmlns="http://www.w3.org/2000/svg" width="2560" height="1706">
 <!-- Created with Image Occlusion Enhanced -->
 <g>
  <title>Labels</title>
 </g>
 <g>
  <title>Masks</title>
  <rect id="facba0c6cd6d44c49e3515d12fb4ce35-ao-1" height="56.25" width="158.33333" y="114.04592" x="30.68075" stroke="#2D2D2D" fill="#FFEBA2"/>
  <rect id="facba0c6cd6d44c49e3515d12fb4ce35-ao-2" height="33.33333" width="175" y="189.04592" x="28.59741" stroke="#2D2D2D" fill="#FFEBA2"/>
  <rect id="facba0c6cd6d44c49e3515d12fb4ce35-ao-3" height="27.08333" width="193.75" y="249.46259" x="9.84741" stroke="#2D2D2D" fill="#FFEBA2"/>
  <rect id="facba0c6cd6d44c49e3515d12fb4ce35-ao-4" height="56.25" width="216.66667" y="314.04592" x="1.51408" stroke="#2D2D2D" fill="#FFEBA2"/>
  <rect id="facba0c6cd6d44c49e3515d12fb4ce35-ao-5" height="41.66667" width="168.75" y="457.79594" x="1210.64109" stroke="#2D2D2D" fill="#FFEBA2"/>
  <rect id="facba0c6cd6d44c49e3515d12fb4ce35-ao-6" height="56.25" width="237.5" y="716.12927" x="2316.89108" stroke="#2D2D2D" fill="#FFEBA2"/>
  <rect id="facba0c6cd6d44c49e3515d12fb4ce35-ao-7" height="45.83333" width="222.91667" y="511.96261" x="2325.22442" stroke="#2D2D2D" fill="#FFEBA2"/>
  <rect id="facba0c6cd6d44c49e3515d12fb4ce35-ao-8" height="62.5" width="187.5" y="176.54594" x="2333.55775" stroke="#2D2D2D" fill="#FFEBA2"/>
  
  <rect id="facba0c6cd6d44c49e3515d12fb4ce35-ao-10" height="41.66667" width="187.5" y="1011.96262" x="1183.55776" stroke="#2D2D2D" fill="#FFEBA2"/>
  <rect id="facba0c6cd6d44c49e3515d12fb4ce35-ao-11" height="50" width="150" y="1068.21262" x="1206.47442" stroke="#2D2D2D" fill="#FFEBA2"/>
  <rect id="facba0c6cd6d44c49e3515d12fb4ce35-ao-12" height="29.16667" width="116.66667" y="1172.37929" x="1229.39109" stroke="#2D2D2D" fill="#FFEBA2"/>
  <rect id="facba0c6cd6d44c49e3515d12fb4ce35-ao-13" height="56.25" width="158.33333" y="1426.54598" x="1160.64109" stroke="#2D2D2D" fill="#FFEBA2"/>
  <rect id="facba0c6cd6d44c49e3515d12fb4ce35-ao-14" height="58.33333" width="106.25" y="1561.96264" x="1202.30776" stroke="#2D2D2D" fill="#FFEBA2"/>
  <rect id="facba0c6cd6d44c49e3515d12fb4ce35-ao-15" height="35.41667" width="206.25" y="1632.79598" x="737.72443" stroke="#2D2D2D" fill="#FFEBA2"/>
  <rect id="facba0c6cd6d44c49e3515d12fb4ce35-ao-16" height="50" width="202.08333" y="1664.04598" x="302.30776" stroke="#2D2D2D" fill="#FFEBA2"/>
  <rect id="facba0c6cd6d44c49e3515d12fb4ce35-ao-17" height="41.66667" width="189.58333" y="1651.54598" x="26.41485" stroke="#2D2D2D" fill="#FFEBA2"/>
  <rect id="facba0c6cd6d44c49e3515d12fb4ce35-ao-18" height="45.83333" width="197.91667" y="1193.21265" x="309.74819" stroke="#2D2D2D" fill="#FFEBA2"/>
  <rect id="facba0c6cd6d44c49e3515d12fb4ce35-ao-19" height="35.41667" width="225" y="901.54597" x="1.41485" stroke="#2D2D2D" fill="#FFEBA2"/>
 </g>
</svg>