<svg xmlns="http://www.w3.org/2000/svg" width="1919.9999999999998" height="2560">
 <!-- Created with Image Occlusion Enhanced -->
 <g>
  <title>Labels</title>
 </g>
 <g>
  <title>Masks</title>
  <rect id="feddcff063804b168c996efc1207bab0-ao-1" height="88.88889" width="283.33334" y="2194.51414" x="584.99998" stroke="#2D2D2D" fill="#FFEBA2"/>
  <rect id="feddcff063804b168c996efc1207bab0-ao-2" height="72.22222" width="455.55557" y="2261.18081" x="29.44441" stroke="#2D2D2D" fill="#FFEBA2"/>
  <rect id="feddcff063804b168c996efc1207bab0-ao-3" height="83.33334" width="311.11112" y="2033.40302" x="34.99997" stroke="#2D2D2D" fill="#FFEBA2"/>
  <rect id="feddcff063804b168c996efc1207bab0-ao-4" height="100" width="294.44445" y="1744.51412" x="-3.88892" stroke="#2D2D2D" fill="#FFEBA2"/>
  <rect id="feddcff063804b168c996efc1207bab0-ao-5" height="72.22222" width="300.00001" y="1533.40301" x="-9.44448" stroke="#2D2D2D" fill="#FFEBA2"/>
  <rect id="feddcff063804b168c996efc1207bab0-ao-6" height="77.77778" width="261.11112" y="1361.18078" x="29.44441" stroke="#2D2D2D" fill="#FFEBA2"/>
  <rect id="feddcff063804b168c996efc1207bab0-ao-7" height="95.83334" width="345.83334" y="1569.17905" x="949.65536" stroke="#2D2D2D" fill="#FFEBA2"/>
  <rect id="feddcff063804b168c996efc1207bab0-ao-8" height="91.66667" width="300.00001" y="1456.67905" x="891.32203" stroke="#2D2D2D" fill="#FFEBA2"/>
  <rect id="feddcff063804b168c996efc1207bab0-ao-9" height="83.33334" width="354.16668" y="1348.34572" x="862.15536" stroke="#2D2D2D" fill="#FFEBA2"/>
  <rect id="feddcff063804b168c996efc1207bab0-ao-10" height="79.16667" width="337.50001" y="1460.84572" x="1341.32204" stroke="#2D2D2D" fill="#FFEBA2"/>
  
  <rect id="feddcff063804b168c996efc1207bab0-ao-12" height="79.16667" width="341.66668" y="1090.01238" x="1516.32204" stroke="#2D2D2D" fill="#FFEBA2"/>
  <rect id="feddcff063804b168c996efc1207bab0-ao-13" height="83.33334" width="287.50001" y="956.67904" x="1549.65538" stroke="#2D2D2D" fill="#FFEBA2"/>
  <rect id="feddcff063804b168c996efc1207bab0-ao-14" height="120.83334" width="304.16667" y="802.51237" x="1549.65538" stroke="#2D2D2D" fill="#FFEBA2"/>
  <rect id="feddcff063804b168c996efc1207bab0-ao-15" height="79.16667" width="320.83334" y="569.17901" x="1312.15537" stroke="#2D2D2D" fill="#FFEBA2"/>
  <rect id="feddcff063804b168c996efc1207bab0-ao-16" height="87.5" width="350.00001" y="456.679" x="1299.65537" stroke="#2D2D2D" fill="#FFEBA2"/>
  <rect id="feddcff063804b168c996efc1207bab0-ao-17" height="129.16667" width="354.16668" y="273.34566" x="1299.65537" stroke="#2D2D2D" fill="#FFEBA2"/>
  <rect id="feddcff063804b168c996efc1207bab0-ao-18" height="83.33334" width="283.33334" y="10.84565" x="1112.15537" stroke="#2D2D2D" fill="#FFEBA2"/>
  <rect id="feddcff063804b168c996efc1207bab0-ao-19" height="100" width="329.16668" y="44.17898" x="637.15535" stroke="#2D2D2D" fill="#FFEBA2"/>
  <rect id="feddcff063804b168c996efc1207bab0-ao-20" height="129.16667" width="333.33334" y="160.84565" x="387.15535" stroke="#2D2D2D" fill="#FFEBA2"/>
  <rect id="feddcff063804b168c996efc1207bab0-ao-21" height="83.33334" width="312.50001" y="215.01232" x="16.322" stroke="#2D2D2D" fill="#FFEBA2"/>
  <rect stroke="#2D2D2D" id="feddcff063804b168c996efc1207bab0-ao-22" height="112.50001" width="333.33334" y="544.17897" x="-0.34466" fill="#FFEBA2"/>
  <rect id="feddcff063804b168c996efc1207bab0-ao-23" height="58.33333" width="212.50001" y="1231.67901" x="20.48867" stroke="#2D2D2D" fill="#FFEBA2"/>
  <rect id="feddcff063804b168c996efc1207bab0-ao-24" height="66.66667" width="212.50001" y="1006.67901" x="32.98867" stroke="#2D2D2D" fill="#FFEBA2"/>
  <rect id="feddcff063804b168c996efc1207bab0-ao-25" height="79.16667" width="195.83334" y="956.679" x="324.65534" stroke-linecap="null" stroke-linejoin="null" stroke-dasharray="null" stroke="#2D2D2D" fill="#FFEBA2"/>
  <rect id="feddcff063804b168c996efc1207bab0-ao-26" height="87.5" width="233.33334" y="965.01234" x="562.15535" stroke-linecap="null" stroke-linejoin="null" stroke-dasharray="null" stroke="#2D2D2D" fill="#FFEBA2"/>
 </g>
</svg>